<svg xmlns="http://www.w3.org/2000/svg" width="20" height="20" viewBox="40 252 20 20"><g data-name="Menu"><path d="M43 255h14a3 3 0 0 1 3 3v11a3 3 0 0 1-3 3H43a3 3 0 0 1-3-3v-11a3 3 0 0 1 3-3z" fill="#8a8e97" fill-rule="evenodd" data-name="Rectangle Copy"/><path d="M49 262h2a1 1 0 0 1 1 1 1 1 0 0 1-1 1h-2a1 1 0 0 1-1-1 1 1 0 0 1 1-1z" fill="#d0d1d4" fill-rule="evenodd" data-name="Rectangle 265"/><path d="M46.246 253.886 45.8 255H43a3 3 0 0 0-3 3v2a3 3 0 0 0 3 3h3a3 3 0 0 1 3-3h2a3 3 0 0 1 3 3h3a3 3 0 0 0 3-3v-2a3 3 0 0 0-3-3h-2.8l-.446-1.114A3 3 0 0 0 50.97 252H49.03a3 3 0 0 0-2.785 1.886Zm4.723.114H49.03a1 1 0 0 0-.928.629l-.149.371h4.092l-.149-.371a1 1 0 0 0-.928-.629Z" fill="#d0d1d4" fill-rule="evenodd" data-name="Subtract"/></g></svg>