<svg xmlns="http://www.w3.org/2000/svg" width="18" height="20" viewBox="41 532.1 18 20"><g data-name="Iconly/Bulk/Calendar"><g data-name="Calendar"><path d="M54.05 548.19a.847.847 0 0 1-.82-.85.831.831 0 0 1 .81-.849h.01c.465 0 .84.38.84.849 0 .47-.375.85-.84.85Zm-4.03-3.68a.822.822 0 0 1-.85-.799c0-.46.356-.84.81-.861.445 0 .81.351.82.8a.822.822 0 0 1-.78.86Zm0 3.63a.822.822 0 0 1-.85-.8c0-.46.356-.839.81-.86.445 0 .81.351.82.801.02.46-.336.84-.78.859Zm-4.06-3.63a.822.822 0 0 1-.85-.799c0-.46.355-.84.81-.861.444 0 .81.351.82.8a.822.822 0 0 1-.78.86Zm-.01 3.63a.822.822 0 0 1-.85-.8c0-.46.356-.839.81-.86.445 0 .81.351.82.801.02.46-.336.84-.78.859Zm7.29-4.439c0-.46.356-.83.81-.84.445 0 .8.359.82.8a.82.82 0 0 1-.79.849.814.814 0 0 1-.84-.799v-.01ZM41 539.357v7.613c0 3.16 1.996 5.13 5.127 5.13h7.736c3.161 0 5.137-1.93 5.137-5.069v-7.674H41Z" fill="#fff" fill-rule="evenodd" data-name="Fill-1"/><path d="M41.003 539.357c.013-.587.063-1.752.155-2.127.475-2.11 2.085-3.45 4.387-3.64h8.91c2.283.2 3.913 1.55 4.387 3.64.092.365.142 1.539.154 2.127H41.003Z" fill="#afbcff" fill-rule="evenodd" data-name="Fill-4"/><path d="M46.305 536.69c.435 0 .76-.329.76-.77v-3.049a.748.748 0 0 0-.76-.771c-.435 0-.76.33-.76.771v3.049c0 .441.325.77.76.77" fill="#fff" fill-rule="evenodd" data-name="Fill-6"/><path d="M53.695 536.69c.425 0 .76-.329.76-.77v-3.049a.754.754 0 0 0-.76-.771c-.435 0-.76.33-.76.771v3.049c0 .441.325.77.76.77" fill="#fff" fill-rule="evenodd" data-name="Fill-9"/></g></g></svg>