<svg xmlns="http://www.w3.org/2000/svg" width="19.25" height="17.967" viewBox="4756.834 954.917 19.25 17.967"><g data-name="vuesax/bulk/card-send"><g data-name="card-send"><path d="M4774.222 954.917h-2.694c-1.165 0-1.861.696-1.861 1.86v2.696c0 1.164.696 1.86 1.86 1.86h2.695c1.165 0 1.861-.696 1.861-1.86v-2.695c0-1.165-.696-1.861-1.86-1.861Zm.202 3.034a.569.569 0 0 1-.403.165.569.569 0 0 1-.404-.165l-.165-.165v2.053c0 .321-.256.578-.577.578a.575.575 0 0 1-.577-.578v-2.053l-.165.165a.575.575 0 0 1-.807 0 .575.575 0 0 1 0-.807l1.146-1.146a.564.564 0 0 1 .174-.11c.018-.009.036-.009.055-.018a.38.38 0 0 1 .146-.027h.056c.064 0 .119.009.183.036h.018a.52.52 0 0 1 .165.11c.01.01.01.01.019.01l1.145 1.145c.22.22.22.587-.009.807Z" fill="#8a8e97" fill-rule="evenodd" data-name="Vector"/><path d="M4775.167 961.122v1.128h-18.334v-1.338c0-2.1 1.705-3.795 3.805-3.795h9.029v2.355c0 1.165.696 1.861 1.86 1.861h2.695c.367 0 .679-.064.945-.21Z" fill="#d0d1d4" fill-rule="evenodd" data-name="Vector"/><path d="M4756.833 962.25v6.838c0 2.1 1.705 3.795 3.805 3.795h10.725c2.099 0 3.804-1.696 3.804-3.795v-6.838h-18.334Zm5.5 7.563h-1.833a.693.693 0 0 1-.687-.688c0-.376.311-.688.687-.688h1.833c.376 0 .688.312.688.688a.693.693 0 0 1-.688.688Zm5.959 0h-3.667a.693.693 0 0 1-.687-.688c0-.376.311-.688.687-.688h3.667c.375 0 .687.312.687.688a.693.693 0 0 1-.687.688Z" fill="#8a8e97" fill-rule="evenodd" data-name="Vector"/></g></g></svg>