<svg xmlns="http://www.w3.org/2000/svg" width="18" height="18" viewBox="41 118 18 18"><g data-name="Menu"><path d="M44 118h2a3 3 0 0 1 3 3v2a3 3 0 0 1-3 3h-2a3 3 0 0 1-3-3v-2a3 3 0 0 1 3-3z" fill="#d0d1d4" fill-rule="evenodd" data-name="Rectangle 241"/><path d="M44 128h2a3 3 0 0 1 3 3v2a3 3 0 0 1-3 3h-2a3 3 0 0 1-3-3v-2a3 3 0 0 1 3-3z" fill="#8a8e97" fill-rule="evenodd" data-name="Rectangle 243"/><path d="M54 118h2a3 3 0 0 1 3 3v2a3 3 0 0 1-3 3h-2a3 3 0 0 1-3-3v-2a3 3 0 0 1 3-3z" fill="#8a8e97" fill-rule="evenodd" data-name="Rectangle 242"/><path d="M54 128h2a3 3 0 0 1 3 3v2a3 3 0 0 1-3 3h-2a3 3 0 0 1-3-3v-2a3 3 0 0 1 3-3z" fill="#d0d1d4" fill-rule="evenodd" data-name="Rectangle 244"/></g></svg>