<svg xmlns="http://www.w3.org/2000/svg" width="17" height="20" viewBox="5082 1021 17 20"><g data-name="Iconly/Bulk/Paper"><g data-name="Paper"><path d="M5097.309 1028.021c-.452 0-1.05-.01-1.794-.01-1.816 0-3.31-1.503-3.31-3.336v-3.216a.456.456 0 0 0-.452-.459h-5.29c-2.468 0-4.463 2.026-4.463 4.509v10.775c0 2.605 2.09 4.716 4.67 4.716h7.876c2.46 0 4.454-2.013 4.454-4.498v-8.031a.453.453 0 0 0-.452-.458c-.423.003-.93.008-1.24.008" fill="#8a8e97" fill-rule="evenodd" data-name="Fill-3"/><path d="M5094.584 1021.567a.477.477 0 0 0-.821.334v2.637c0 1.106.911 2.016 2.017 2.016.697.008 1.665.01 2.487.008a.477.477 0 0 0 .343-.808l-4.026-4.187" fill="#d0d1d4" fill-rule="evenodd" data-name="Fill-1"/><path d="M5092.918 1033.893a.746.746 0 0 1 0 1.489h-5.444a.744.744 0 1 1 0-1.49h5.444Zm-2.06-4.994a.746.746 0 0 1 0 1.489h-3.384a.744.744 0 1 1 0-1.49h3.385Z" fill="#d0d1d4" fill-rule="evenodd" data-name="Combined-Shape"/></g></g></svg>