<svg xmlns="http://www.w3.org/2000/svg" width="20.59" height="16.95" viewBox="4395.71 822.52 20.59 16.95"><g data-name="vuesax/bulk/moneys"><g data-name="moneys"><path d="M4413.3 826.92v5.15c0 3.08-1.76 4.4-4.4 4.4h-8.79c-.45 0-.88-.04-1.28-.13-.25-.04-.49-.11-.71-.19-1.5-.56-2.41-1.86-2.41-4.08v-5.15c0-3.08 1.76-4.4 4.4-4.4h8.79c2.24 0 3.85.95 4.28 3.12.07.4.12.81.12 1.28Z" fill="#afbcff" fill-rule="evenodd" data-name="Vector"/><path d="M4416.3 829.92v5.15c0 3.08-1.76 4.4-4.4 4.4h-8.79c-.74 0-1.41-.1-1.99-.32-1.19-.44-2-1.35-2.29-2.81.4.09.83.13 1.28.13h8.79c2.64 0 4.4-1.32 4.4-4.4v-5.15c0-.47-.04-.89-.12-1.28 1.9.4 3.12 1.74 3.12 4.28Z" fill="#fff" fill-rule="evenodd" data-name="Vector"/><path d="M4407.14 829.5a2.64 2.64 0 1 1-5.28 0 2.64 2.64 0 0 1 5.28 0ZM4398.78 827.25c-.41 0-.75.34-.75.75v3c0 .41.34.75.75.75s.75-.34.75-.75v-3c0-.41-.33-.75-.75-.75ZM4410.21 827.25c-.41 0-.75.34-.75.75v3c0 .41.34.75.75.75s.75-.34.75-.75v-3c0-.41-.33-.75-.75-.75Z" fill="#fff" fill-rule="evenodd" data-name="Vector"/></g></g></svg>