<svg xmlns="http://www.w3.org/2000/svg" width="17" height="20" viewBox="1156.5 350 17 20"><g data-name="Group 37863"><path d="M1173.5 364v2.5c0 1.93-1.57 3.5-3.5 3.5h-10c-1.93 0-3.5-1.57-3.5-3.5v-.65c0-1.57 1.28-2.85 2.85-2.85h13.15c.55 0 1 .45 1 1Z" fill="#d0d1d4" fill-rule="evenodd" data-name="Vector"/><path d="M1168.5 350h-7c-4 0-5 1-5 5v7.58c.76-.67 1.76-1.08 2.85-1.08h13.15c.55 0 1-.45 1-1V355c0-4-1-5-5-5Zm-2.5 8.75h-5c-.41 0-.75-.34-.75-.75s.34-.75.75-.75h5c.41 0 .75.34.75.75s-.34.75-.75.75Zm3-3.5h-8c-.41 0-.75-.34-.75-.75s.34-.75.75-.75h8c.41 0 .75.34.75.75s-.34.75-.75.75Z" fill="#8a8e97" fill-rule="evenodd" data-name="Vector"/></g></svg>