<svg xmlns="http://www.w3.org/2000/svg" width="16" height="20" viewBox="42 392 16 20"><g data-name="Menu"><path d="M58 405c0 4-3.747 7-8 7s-8-3-8-8c0-3.06 2-8 2-8s1 2.5 1.5 4 1.5 2 1.5 2-.643-1.858 0-4c1.5-5 5-6 5-6s-.372 3.628 2 6c1 1 4 3 4 7Z" fill="#d0d1d4" fill-rule="evenodd" data-name="Path"/><path d="M49 408c3.11 0 6.638-2.439 5.908-5.877.688.814 1.092 1.806 1.092 2.877 0 2.761-2.686 5-6 5-2.955 0-5.41-1.78-5.908-4.123C45.178 407.16 46.972 408 49 408Z" fill="#8a8e97" fill-rule="evenodd" data-name="Subtract"/></g></svg>