<svg xmlns="http://www.w3.org/2000/svg" width="18" height="19" viewBox="41 1016 18 19"><g data-name="Menu"><path d="M53.632 1018.871c.25-.492.856-.691 1.317-.388a9 9 0 1 1-9.898 0c.46-.303 1.066-.104 1.317.388.25.492.05 1.088-.402 1.406a7.002 7.002 0 1 0 8.068 0c-.451-.318-.652-.914-.402-1.406Z" fill="#8a8e97" fill-rule="evenodd" data-name="Ellipse 201"/><path d="M50 1016a1 1 0 0 1 1 1v5a1 1 0 0 1-2 0v-5a1 1 0 0 1 1-1Z" fill="#d0d1d4" fill-rule="evenodd" data-name="Vector 606 (Stroke)"/></g></svg>