<svg xmlns="http://www.w3.org/2000/svg" width="20.933" height="18.05" viewBox="40 603.05 20.933 18.05"><g data-name="Menu"><path d="M48 607a4 4 0 1 1 0 .1z" fill="#fff" fill-rule="evenodd" data-name="Ellipse 133"/><path d="M50 613.1a6 6 0 0 0-6 6 2 2 0 0 0 2 2h12a2 2 0 0 0 2-2v-1a5 5 0 0 0-5-5h-5Z" fill="#fff" fill-rule="evenodd" data-name="Union"/><path d="M45 613.1a5 5 0 0 0-5 5v1a2 2 0 0 0 2 2h12a2 2 0 0 0 2-2v-1a5 5 0 0 0-5-5h-6Z" fill="#afbcff" fill-rule="evenodd" data-name="Union"/><path d="M44 607a4 4 0 1 1 0 .1z" fill="#afbcff" fill-rule="evenodd" data-name="Ellipse 132"/><path d="M60.387 609.555h-.909v-.91a.55.55 0 0 0-.545-.545.55.55 0 0 0-.546.545v.91h-.909a.55.55 0 0 0-.545.545.55.55 0 0 0 .545.545h.91v.91a.55.55 0 0 0 .545.545.55.55 0 0 0 .545-.545v-.91h.91a.55.55 0 0 0 .545-.545.55.55 0 0 0-.546-.545Z" fill="#fff" fill-rule="evenodd" data-name="Vector"/></g></svg>