<svg xmlns="http://www.w3.org/2000/svg" width="20" height="18.05" viewBox="40 183.95 20 18.05"><g data-name="Menu"><path d="M48 187.9a4 4 0 1 1 0 .1z" fill="#fff" fill-rule="evenodd" data-name="Ellipse 133"/><path d="M50 194a6 6 0 0 0-6 6 2 2 0 0 0 2 2h12a2 2 0 0 0 2-2v-1a5 5 0 0 0-5-5h-5Z" fill="#fff" fill-rule="evenodd" data-name="Union"/><path d="M45 194a5 5 0 0 0-5 5v1a2 2 0 0 0 2 2h12a2 2 0 0 0 2-2v-1a5 5 0 0 0-5-5h-6Z" fill="#afbcff" fill-rule="evenodd" data-name="Union"/><path d="M44 187.9a4 4 0 1 1 0 .1z" fill="#afbcff" fill-rule="evenodd" data-name="Ellipse 132"/></g></svg>