<svg xmlns="http://www.w3.org/2000/svg" width="20" height="20.109" viewBox="40 462 20 20.109"><g data-name="messages"><path d="M54 465.766a1.5 1.5 0 0 0 .832-.252l2.89-1.927a.5.5 0 0 1 .778.416v9.263a1.5 1.5 0 0 1-1.5 1.5h-1v1.5h1a3 3 0 0 0 3-3v-9.263c0-1.597-1.78-2.55-3.11-1.664L54 464.266h-7a3 3 0 0 0-3 3v1h1.5v-1a1.5 1.5 0 0 1 1.5-1.5h7Z" fill="#afbcff" fill-rule="evenodd" data-name="Subtract"/><path d="M44.063 479.095a1.5 1.5 0 0 1 .937-.329h8a1.5 1.5 0 0 0 1.5-1.5v-6a1.5 1.5 0 0 0-1.5-1.5H43a1.5 1.5 0 0 0-1.5 1.5v8.84a.5.5 0 0 0 .812.39l1.751-1.401Zm.937 1.171h8a3 3 0 0 0 3-3v-6a3 3 0 0 0-3-3H43a3 3 0 0 0-3 3v8.84c0 1.676 1.94 2.608 3.25 1.56l1.75-1.4Z" fill="#fff" fill-rule="evenodd" data-name="Rectangle 192 (Stroke)"/><path d="M44.25 474.266a.75.75 0 0 1 .75-.75h6a.75.75 0 1 1 0 1.5h-6a.75.75 0 0 1-.75-.75Z" fill="#afbcff" fill-rule="evenodd" data-name="Vector 409 (Stroke)"/></g></svg>