<svg xmlns="http://www.w3.org/2000/svg" width="20" height="22.222" viewBox="40 716 20 22.222"><g data-name="Group 37411"><path d="M60 721.556v11.11c0 3.334-1.667 5.556-5.556 5.556h-8.888c-3.89 0-5.556-2.222-5.556-5.555v-11.111c0-3.334 1.667-5.556 5.556-5.556h8.888c3.89 0 5.556 2.222 5.556 5.556Z" fill="#d0d1d4" fill-rule="evenodd" data-name="Vector"/><g data-name="Group"><path d="M57.222 724.056H55A3.054 3.054 0 0 1 51.944 721v-2.222a.84.84 0 0 1 .834-.834.84.84 0 0 1 .833.834V721A1.39 1.39 0 0 0 55 722.389h2.222a.84.84 0 0 1 .834.833.84.84 0 0 1-.834.834Z" fill="#8a8e97" fill-rule="evenodd" data-name="Vector"/></g><g data-name="Group"><path d="M50 729.056h-4.444a.84.84 0 0 1-.834-.834.84.84 0 0 1 .834-.833H50a.84.84 0 0 1 .833.833.84.84 0 0 1-.833.834Z" fill="#8a8e97" fill-rule="evenodd" data-name="Vector"/></g><g data-name="Group"><path d="M54.444 733.5h-8.888a.84.84 0 0 1-.834-.833.84.84 0 0 1 .834-.834h8.888a.84.84 0 0 1 .834.834.84.84 0 0 1-.834.833Z" fill="#8a8e97" fill-rule="evenodd" data-name="Vector"/></g></g></svg>