<svg xmlns="http://www.w3.org/2000/svg" width="18.333" height="18.867" viewBox="1876.833 484.833 18.333 18.867"><g data-name="vuesax/bulk/receipt-minus"><g data-name="receipt-minus"><path d="M1895.167 488.5v2.218c0 1.449-.917 2.365-2.365 2.365h-3.135v-6.407a1.85 1.85 0 0 1 1.851-1.843c1 .01 1.916.413 2.576 1.073a3.69 3.69 0 0 1 1.073 2.594Z" fill="#8a8e97" fill-rule="evenodd" data-name="Vector"/><path d="M1876.833 489.417v12.833a.914.914 0 0 0 1.467.733l1.567-1.173a.924.924 0 0 1 1.21.092l1.522 1.53a.924.924 0 0 0 1.302 0l1.54-1.54a.909.909 0 0 1 1.192-.082l1.567 1.173c.605.45 1.467.019 1.467-.733v-15.583c0-1.009.825-1.834 1.833-1.834h-11c-2.75 0-3.667 1.641-3.667 3.667v.917Z" fill="#d0d1d4" fill-rule="evenodd" data-name="Vector"/><g data-name="Group"><path d="M1885.77 492.854h-5.04a.693.693 0 0 1-.688-.687c0-.376.311-.688.687-.688h5.042c.376 0 .687.312.687.688a.693.693 0 0 1-.687.687Z" fill="#8a8e97" fill-rule="evenodd" data-name="Vector"/></g></g></g></svg>