<svg xmlns="http://www.w3.org/2000/svg" width="18.333" height="18.867" viewBox="2956.834 601.833 18.333 18.867"><g data-name="vuesax/bulk/receipt-item"><g data-name="receipt-item"><path d="M2975.167 605.5v2.218c0 1.449-.917 2.365-2.365 2.365h-3.135v-6.407c0-1.018.834-1.852 1.851-1.843 1 .01 1.916.413 2.576 1.073a3.69 3.69 0 0 1 1.073 2.594Z" fill="#afbcff" fill-rule="evenodd" data-name="Vector"/><path d="M2956.833 606.417v12.833a.914.914 0 0 0 1.467.733l1.567-1.173a.924.924 0 0 1 1.21.092l1.522 1.53a.924.924 0 0 0 1.302 0l1.54-1.54a.909.909 0 0 1 1.192-.082l1.567 1.173c.605.45 1.467.019 1.467-.733v-15.583c0-1.009.825-1.834 1.833-1.834h-11c-2.75 0-3.667 1.641-3.667 3.667v.917Z" fill="#fff" fill-rule="evenodd" data-name="Vector"/><g data-name="Group"><path d="M2966 611.238h-2.75a.693.693 0 0 0-.688.688c0 .376.312.687.688.687h2.75a.693.693 0 0 0 .687-.687.693.693 0 0 0-.687-.688ZM2963.25 608.947h2.75a.693.693 0 0 0 .687-.688.693.693 0 0 0-.687-.687h-2.75a.693.693 0 0 0-.688.687c0 .376.312.688.688.688ZM2960.473 607.342a.913.913 0 0 0-.917.917.92.92 0 0 0 .917.917.92.92 0 0 0 .916-.917.92.92 0 0 0-.916-.917ZM2960.473 611.01a.913.913 0 0 0-.917.916.92.92 0 0 0 .917.916.92.92 0 0 0 .916-.916.92.92 0 0 0-.916-.917Z" fill="#afbcff" fill-rule="evenodd" data-name="Vector"/></g></g></g></svg>