<svg xmlns="http://www.w3.org/2000/svg" width="20.03" height="20" viewBox="400.97 177 20.03 20"><g data-name="vuesax/bulk/building"><g data-name="building"><path d="M411.5 182.41V197h-8.42c-1.16 0-2.11-.93-2.11-2.07v-14.84c0-2.62 1.96-3.81 4.35-2.64l4.43 2.19c.96.47 1.75 1.72 1.75 2.77Z" fill="#fff" fill-rule="evenodd" data-name="Vector"/><path d="M407.97 184.75h-3.47c-.41 0-.75-.34-.75-.75s.34-.75.75-.75h3.47a.749.749 0 1 1 0 1.5ZM407.97 188.75h-3.47c-.41 0-.75-.34-.75-.75s.34-.75.75-.75h3.47a.749.749 0 1 1 0 1.5ZM421 190.05v4.45a2.5 2.5 0 0 1-2.5 2.5h-7v-11.58l.47.1 4.04.9.48.11 2.04.46c.49.1.94.27 1.33.52 0 .01.01.01.01.01.1.07.2.15.29.24.46.46.76 1.13.83 2.11 0 .06.01.12.01.18Z" fill="#afbcff" fill-rule="evenodd" data-name="Vector"/></g></g></svg>