<svg xmlns="http://www.w3.org/2000/svg" width="19.212" height="22.07" viewBox="40.446 671.207 19.212 22.07"><g data-name="vuesax/bulk/clipboard-tick"><g data-name="clipboard-tick"><path d="M54.737 673.028h-9.358a4.938 4.938 0 0 0-4.933 4.933v10.384a4.945 4.945 0 0 0 4.933 4.932h9.347a4.938 4.938 0 0 0 4.933-4.932V677.96c.01-2.726-2.207-4.933-4.922-4.933Z" fill="#fff" fill-rule="evenodd" data-name="Vector"/><path d="M52.651 671.207h-5.186a2.082 2.082 0 0 0-2.086 2.075v1.037c0 1.148.927 2.075 2.075 2.075h5.197a2.072 2.072 0 0 0 2.075-2.075v-1.037a2.065 2.065 0 0 0-2.075-2.075ZM48.745 687.705a.819.819 0 0 1-.585-.243l-1.655-1.655a.833.833 0 0 1 0-1.17c.32-.32.85-.32 1.17 0l1.07 1.07 3.83-3.829c.32-.32.849-.32 1.169 0 .32.32.32.85 0 1.17l-4.414 4.414a.8.8 0 0 1-.585.243Z" fill="#afbcff" fill-rule="evenodd" data-name="Vector"/></g></g></svg>