<svg xmlns="http://www.w3.org/2000/svg" width="24.34" height="25.621" viewBox="1662.7 32 24.34 25.621"><g data-name="Iconly/Bulk/Setting"><g data-name="Setting"><path d="M1686.694 47.846c-.249-.384-.602-.768-1.06-1.012-.367-.179-.603-.474-.812-.82-.668-1.101-.275-2.549.838-3.202a2.597 2.597 0 0 0 .968-3.625l-.877-1.512a2.706 2.706 0 0 0-3.679-.974c-1.152.615-2.631.205-3.299-.884-.21-.358-.327-.743-.3-1.127.039-.5-.119-.973-.354-1.358-.485-.794-1.362-1.332-2.33-1.332h-1.846a2.811 2.811 0 0 0-2.318 1.332 2.286 2.286 0 0 0-.366 1.358c.026.384-.092.769-.301 1.127-.668 1.09-2.147 1.5-3.286.884a2.722 2.722 0 0 0-3.692.974l-.877 1.512a2.618 2.618 0 0 0 .968 3.625c1.113.653 1.506 2.1.851 3.203-.222.345-.458.64-.824.82-.445.243-.838.627-1.048 1.011-.484.795-.458 1.794.027 2.626l.903 1.538a2.733 2.733 0 0 0 2.33 1.332c.445 0 .969-.128 1.388-.384.327-.218.72-.295 1.152-.295 1.296 0 2.383 1.063 2.409 2.332 0 1.473 1.204 2.626 2.723 2.626h1.78c1.506 0 2.71-1.153 2.71-2.626.04-1.269 1.126-2.332 2.422-2.332.42 0 .812.077 1.152.295.42.256.93.384 1.388.384.93 0 1.833-.512 2.317-1.332l.917-1.538c.47-.858.51-1.831.026-2.626" fill="#d0d1d4" fill-rule="evenodd" data-name="Path"/><path d="M1674.885 48.436c-2.055 0-3.718-1.602-3.718-3.613s1.663-3.625 3.718-3.625c2.055 0 3.679 1.614 3.679 3.625s-1.624 3.613-3.679 3.613" fill="#8a8e97" fill-rule="evenodd" data-name="Path"/></g></g></svg>