<svg xmlns="http://www.w3.org/2000/svg" xmlns:xlink="http://www.w3.org/1999/xlink" width="45.19" height="45.19" viewBox="0 0 45.19 45.19">
  <defs>
    <clipPath id="clip-path">
      <rect width="45.19" height="45.19" fill="none"/>
    </clipPath>
  </defs>
  <g id="Group_3" data-name="Group 3" clip-path="url(#clip-path)">
    <g id="Group_3-2" data-name="Group 3">
      <circle id="background" cx="22.595" cy="22.595" r="22.595" fill="#b548c6"/>
      <g id="vuesax_bold_candle" data-name="vuesax/bold/candle" transform="translate(-289 -245)">
        <g id="candle">
          <path id="Vector" d="M0,0H24V24H0Z" transform="translate(300 256)" fill="none" opacity="0"/>
          <path id="Vector-2" data-name="Vector" d="M4.5,3.25H4.25V.75a.75.75,0,0,0-1.5,0v2.5H2.5A2.275,2.275,0,0,0,0,5.75v6a2.275,2.275,0,0,0,2.5,2.5h.25v6.5a.75.75,0,0,0,1.5,0v-6.5H4.5A2.275,2.275,0,0,0,7,11.75v-6A2.275,2.275,0,0,0,4.5,3.25Z" transform="translate(303 257.25)" fill="#fff"/>
          <path id="Vector-3" data-name="Vector" d="M4.5,7.25H4.25V.75a.75.75,0,0,0-1.5,0v6.5H2.5A2.275,2.275,0,0,0,0,9.75v6a2.275,2.275,0,0,0,2.5,2.5h.25v2.5a.75.75,0,0,0,1.5,0v-2.5H4.5A2.275,2.275,0,0,0,7,15.75v-6A2.275,2.275,0,0,0,4.5,7.25Z" transform="translate(314 257.25)" fill="#fff"/>
        </g>
      </g>
    </g>
  </g>
</svg>
