<svg id="Group_2" data-name="Group 2" xmlns="http://www.w3.org/2000/svg" width="45.19" height="45.19" viewBox="0 0 45.19 45.19">
  <circle id="background" cx="22.595" cy="22.595" r="22.595" fill="#ff8700"/>
  <g id="vuesax_bold_money-add" data-name="vuesax/bold/money-add" transform="translate(-481 -305)">
    <g id="money-add">
      <path id="Vector" d="M15,0H5C2,0,0,1.5,0,5V8.56a.5.5,0,0,0,.71.45,5.537,5.537,0,0,1,3.3-.41A5.563,5.563,0,0,1,8.5,14.18a5.077,5.077,0,0,1-.18,1.23.49.49,0,0,0,.49.6H15c3,0,5-1.5,5-5V5C20,1.5,18,0,15,0ZM10,10.5A2.5,2.5,0,1,1,12.5,8,2.5,2.5,0,0,1,10,10.5Zm7.25-.5a.75.75,0,0,1-1.5,0V6a.75.75,0,0,1,1.5,0Z" transform="translate(494 320)" fill="#fff"/>
      <path id="Vector-2" data-name="Vector" d="M0,0H24V24H0Z" transform="translate(492 316)" fill="none" opacity="0"/>
      <path id="Vector-3" data-name="Vector" d="M4,0A4,4,0,0,0,0,4,3.921,3.921,0,0,0,.58,6.06a3.985,3.985,0,0,0,6.84,0A3.921,3.921,0,0,0,8,4,4,4,0,0,0,4,0ZM5.49,4.73H4.75v.78a.75.75,0,0,1-1.5,0V4.73H2.51a.75.75,0,1,1,0-1.5h.74V2.52a.75.75,0,0,1,1.5,0v.71h.74a.75.75,0,0,1,0,1.5Z" transform="translate(493 330)" fill="#fff"/>
    </g>
  </g>
</svg>
