<svg xmlns="http://www.w3.org/2000/svg" width="24" height="24" viewBox="0 0 24 24">
  <g id="vuesax_linear_info-circle" data-name="vuesax/linear/info-circle" transform="translate(-364 -252)">
    <g id="info-circle">
      <path id="Vector" d="M10,20.75A10.738,10.738,0,0,1,2.407,2.407,10.738,10.738,0,1,1,17.593,17.593,10.674,10.674,0,0,1,10,20.75Zm0-20A9.25,9.25,0,1,0,19.25,10,9.26,9.26,0,0,0,10,.75Z" transform="translate(366 254)" fill="#292d32"/>
      <path id="Vector-2" data-name="Vector" d="M0,5.75A.75.75,0,0,1-.75,5V0A.75.75,0,0,1,0-.75.75.75,0,0,1,.75,0V5A.75.75,0,0,1,0,5.75Z" transform="translate(376 260)" fill="#292d32"/>
      <path id="Vector-3" data-name="Vector" d="M.009,1H0A1,1,0,0,1-1,0,1,1,0,0,1,0-1H.009a1,1,0,0,1,1,1A1,1,0,0,1,.009,1Z" transform="translate(375.995 268)" fill="#292d32"/>
      <path id="Vector-4" data-name="Vector" d="M0,0H24V24H0Z" transform="translate(364 252)" fill="none" opacity="0"/>
    </g>
  </g>
</svg>
