<svg xmlns="http://www.w3.org/2000/svg" width="15.182" height="15.182" viewBox="1085 1772 15.182 15.182"><g data-name="tune"><path d="M1087.668 1784.58h-2.017a.65.65 0 1 1 0-1.302h2.017a3.254 3.254 0 0 1 6.376 0h5.487a.65.65 0 1 1 0 1.301h-5.487a3.254 3.254 0 0 1-6.376 0Zm1.236-.651a1.952 1.952 0 1 1 3.904 0 1.952 1.952 0 0 1-3.904 0ZM1091.138 1775.904h-5.487a.65.65 0 1 1 0-1.301h5.487a3.254 3.254 0 0 1 6.376 0h2.017a.65.65 0 1 1 0 1.301h-2.017a3.254 3.254 0 0 1-6.376 0Zm1.236-.65a1.952 1.952 0 1 1 3.904 0 1.952 1.952 0 0 1-3.904 0Z" fill="#fff" fill-rule="evenodd" data-name="Union"/></g></svg>