<svg xmlns="http://www.w3.org/2000/svg" width="86.958" height="86.958" viewBox="1205 760 86.958 86.958"><g data-name="Groupe 38096"><path d="M1233.987 791.885c0-8.004 6.486-14.493 14.492-14.493s14.492 6.489 14.492 14.493c0 8.004-6.486 14.493-14.492 14.493s-14.492-6.489-14.492-14.493Z" fill="gray" fill-rule="evenodd" data-name="Tracé 27618"/><path d="M1248.479 760c-24.014 0-43.479 19.466-43.479 43.479 0 24.013 19.465 43.479 43.479 43.479s43.479-19.466 43.479-43.479c0-24.013-19.465-43.479-43.479-43.479Zm-37.683 43.479c0-20.81 16.873-37.682 37.683-37.682s37.683 16.871 37.683 37.682c0 10.722-4.479 20.399-11.669 27.26-.875-10.398-9.592-18.564-20.218-18.564h-11.592c-10.626 0-19.343 8.166-20.218 18.565-7.19-6.862-11.669-16.539-11.669-27.261Z" fill="gray" fill-rule="evenodd" data-name="Tracé 27674"/></g></svg>