<svg id="Group_38017" data-name="Group 38017" xmlns="http://www.w3.org/2000/svg" width="34" height="34" viewBox="0 0 34 34">
  <circle id="Ellipse_128" data-name="Ellipse 128" cx="17" cy="17" r="17" fill="#017efb"/>
  <g id="vuesax_outline_clipboard-text" data-name="vuesax/outline/clipboard-text" transform="translate(-99.5 -244)">
    <g id="clipboard-text" transform="translate(108 252)">
      <path id="Vector" d="M5.813,1.125H.563A.567.567,0,0,1,0,.563.567.567,0,0,1,.563,0h5.25a.567.567,0,0,1,.563.563A.567.567,0,0,1,5.813,1.125Z" transform="translate(5.438 8.588)" fill="#fff"/>
      <path id="Vector-2" data-name="Vector" d="M3.848,1.125H.563A.567.567,0,0,1,0,.563.567.567,0,0,1,.563,0H3.848A.567.567,0,0,1,4.41.563.567.567,0,0,1,3.848,1.125Z" transform="translate(5.438 11.588)" fill="#fff"/>
      <path id="Vector-3" data-name="Vector" d="M5.063,4.125h-3c-.72,0-2.062,0-2.062-2.062S1.342,0,2.063,0h3c.72,0,2.063,0,2.063,2.063C7.125,2.783,7.125,4.125,5.063,4.125Zm-3-3c-.743,0-.937,0-.937.938S1.32,3,2.063,3h3C6,3,6,2.805,6,2.063c0-.937-.2-.937-.937-.937Z" transform="translate(5.438 0.938)" fill="#fff"/>
      <path id="Vector-4" data-name="Vector" d="M9.563,14.611h-4.5C.848,14.611,0,12.676,0,9.548v-4.5C0,1.628,1.238.166,4.283.008a.567.567,0,0,1,.592.533.556.556,0,0,1-.533.585c-2.13.12-3.217.758-3.217,3.923v4.5c0,2.775.548,3.937,3.938,3.937h4.5c3.39,0,3.938-1.162,3.938-3.937v-4.5c0-3.165-1.088-3.8-3.217-3.923A.567.567,0,0,1,9.75.533.567.567,0,0,1,10.343,0c3.045.165,4.282,1.627,4.282,5.04v4.5C14.625,12.676,13.777,14.611,9.563,14.611Z" transform="translate(1.688 2.452)" fill="#fff"/>
      <path id="Vector-5" data-name="Vector" d="M0,0H18V18H0Z" fill="none" opacity="0"/>
    </g>
  </g>
</svg>
