<svg id="clipboard-text" xmlns="http://www.w3.org/2000/svg" width="46" height="46" viewBox="0 0 46 46">
  <path id="Vector" d="M14.854,2.875H1.438A1.448,1.448,0,0,1,0,1.438,1.448,1.448,0,0,1,1.438,0H14.854a1.448,1.448,0,0,1,1.437,1.438A1.448,1.448,0,0,1,14.854,2.875Z" transform="translate(13.896 21.946)" fill="#292d32"/>
  <path id="Vector-2" data-name="Vector" d="M9.833,2.875h-8.4A1.448,1.448,0,0,1,0,1.438,1.448,1.448,0,0,1,1.438,0h8.4A1.448,1.448,0,0,1,11.27,1.438,1.448,1.448,0,0,1,9.833,2.875Z" transform="translate(13.896 29.613)" fill="#292d32"/>
  <path id="Vector-3" data-name="Vector" d="M12.938,10.542H5.271c-1.84,0-5.271,0-5.271-5.271S3.431,0,5.271,0h7.667c1.84,0,5.271,0,5.271,5.271C18.208,7.111,18.208,10.542,12.938,10.542ZM5.271,2.875c-1.9,0-2.4,0-2.4,2.4s.5,2.4,2.4,2.4h7.667c2.4,0,2.4-.5,2.4-2.4,0-2.4-.5-2.4-2.4-2.4Z" transform="translate(13.896 2.396)" fill="#292d32"/>
  <path id="Vector-4" data-name="Vector" d="M24.438,37.338h-11.5C2.166,37.338,0,32.393,0,24.4V12.9C0,4.161,3.163.423,10.944.021a1.449,1.449,0,0,1,1.514,1.361A1.421,1.421,0,0,1,11.1,2.877C5.654,3.183,2.875,4.813,2.875,12.9V24.4c0,7.092,1.4,10.063,10.062,10.063h11.5C33.1,34.463,34.5,31.493,34.5,24.4V12.9c0-8.088-2.779-9.717-8.223-10.024a1.45,1.45,0,0,1-1.361-1.514A1.45,1.45,0,0,1,26.431,0c7.782.422,10.944,4.159,10.944,12.88v11.5C37.375,32.393,35.209,37.338,24.438,37.338Z" transform="translate(4.312 6.266)" fill="#292d32"/>
  <path id="Vector-5" data-name="Vector" d="M0,0H46V46H0Z" fill="none" opacity="0"/>
</svg>
