<svg xmlns="http://www.w3.org/2000/svg" width="50" height="50" viewBox="0 0 50 50">
  <g id="vuesax_outline_document-text" data-name="vuesax/outline/document-text" transform="translate(-172 -188)">
    <g id="document-text" transform="translate(172 188)">
      <path id="Vector" d="M28.646,44.792h-12.5C4.833,44.792,0,39.958,0,28.646v-12.5C0,4.833,4.833,0,16.146,0H26.562a1.574,1.574,0,0,1,1.563,1.563,1.574,1.574,0,0,1-1.562,1.563H16.146c-9.6,0-13.021,3.417-13.021,13.021v12.5c0,9.6,3.417,13.021,13.021,13.021h12.5c9.6,0,13.021-3.417,13.021-13.021V18.229a1.563,1.563,0,0,1,3.125,0V28.646C44.792,39.958,39.958,44.792,28.646,44.792Z" transform="translate(2.604 2.604)"/>
      <path id="Vector-2" data-name="Vector" d="M18.229,19.789H9.9c-7.125,0-9.9-2.771-9.9-9.9V1.559A1.544,1.544,0,0,1,.958.122,1.576,1.576,0,0,1,2.667.455L19.333,17.122a1.564,1.564,0,0,1-1.1,2.667ZM3.125,5.33V9.893c0,5.375,1.4,6.771,6.771,6.771h4.563Z" transform="translate(27.604 2.607)"/>
      <path id="Vector-3" data-name="Vector" d="M14.062,3.125H1.563A1.574,1.574,0,0,1,0,1.563,1.574,1.574,0,0,1,1.563,0h12.5a1.574,1.574,0,0,1,1.563,1.563A1.574,1.574,0,0,1,14.062,3.125Z" transform="translate(13.021 25.521)"/>
      <path id="Vector-4" data-name="Vector" d="M9.9,3.125H1.563A1.574,1.574,0,0,1,0,1.563,1.574,1.574,0,0,1,1.563,0H9.9a1.574,1.574,0,0,1,1.562,1.563A1.574,1.574,0,0,1,9.9,3.125Z" transform="translate(13.021 33.854)"/>
      <path id="Vector-5" data-name="Vector" d="M0,0H50V50H0Z" fill="none" opacity="0"/>
    </g>
  </g>
</svg>
