<svg xmlns="http://www.w3.org/2000/svg" width="45.19" height="45.19" viewBox="0 0 45.19 45.19">
  <g id="Group_2" data-name="Group 2" transform="translate(-277 -841.728)">
    <circle id="background" cx="22.595" cy="22.595" r="22.595" transform="translate(277 841.728)" fill="#ff8700"/>
    <g id="vuesax_bold_archive" data-name="vuesax/bold/archive" transform="translate(116 661.728)">
      <g id="archive">
        <path id="Vector" d="M13.5,0H3.86A3.869,3.869,0,0,0,0,3.86V17.95c0,1.8,1.29,2.56,2.87,1.69l4.88-2.71a2.118,2.118,0,0,1,1.87,0l4.88,2.71c1.58.88,2.87.12,2.87-1.69V3.86A3.884,3.884,0,0,0,13.5,0ZM11.69,7.75a8.878,8.878,0,0,1-3.01.53,8.878,8.878,0,0,1-3.01-.53.749.749,0,0,1-.45-.96.764.764,0,0,1,.97-.45,7.373,7.373,0,0,0,4.99,0,.75.75,0,0,1,.51,1.41Z" transform="translate(175.32 193)" fill="#fff"/>
        <path id="Vector-2" data-name="Vector" d="M0,0H24V24H0Z" transform="translate(196 215) rotate(180)" fill="none" opacity="0"/>
      </g>
    </g>
  </g>
</svg>
