<svg xmlns="http://www.w3.org/2000/svg" width="45.19" height="45.19" viewBox="0 0 45.19 45.19">
  <g id="Group_3" data-name="Group 3" transform="translate(-558 -842)">
    <circle id="background" cx="22.595" cy="22.595" r="22.595" transform="translate(558 842)" fill="#32a7e2"/>
    <g id="vuesax_bold_more-circle" data-name="vuesax/bold/more-circle" transform="translate(269 601)">
      <g id="more-circle">
        <path id="Vector" d="M10,0A10,10,0,1,0,20,10,10.016,10.016,0,0,0,10,0ZM6,11a1,1,0,1,1,1-1A1,1,0,0,1,6,11Zm4,0a1,1,0,1,1,1-1A1,1,0,0,1,10,11Zm4,0a1,1,0,1,1,1-1A1,1,0,0,1,14,11Z" transform="translate(302 254)" fill="#fff"/>
        <path id="Vector-2" data-name="Vector" d="M0,0H24V24H0Z" transform="translate(324 276) rotate(180)" fill="none" opacity="0"/>
      </g>
    </g>
  </g>
</svg>
