<svg xmlns="http://www.w3.org/2000/svg" width="555.419" height="108.03" viewBox="0 0 555.419 108.03">
  <g id="Group_38484" data-name="Group 38484" transform="translate(-0.265 -0.071)">
    <path id="Path_27693" data-name="Path 27693" d="M11.263.071h-11V108.1h11Z" transform="translate(0 0)" fill="#383838"/>
    <path id="Path_27694" data-name="Path 27694" d="M19.937.071h-5.5V108.1h5.5Z" transform="translate(2.325 0)" fill="#383838"/>
    <path id="Path_27695" data-name="Path 27695" d="M34.11.071h-5.5V108.1h5.5Z" transform="translate(4.649 0)" fill="#383838"/>
    <path id="Path_27696" data-name="Path 27696" d="M57.732.071h-5.5V108.1h5.5Z" transform="translate(8.524 0)" fill="#383838"/>
    <path id="Path_27697" data-name="Path 27697" d="M72.679.071h-11V108.1h11Z" transform="translate(10.073 0)" fill="#383838"/>
    <path id="Path_27698" data-name="Path 27698" d="M95.526.071h-5.5V108.1h5.5Z" transform="translate(14.723 0)" fill="#383838"/>
    <path id="Path_27699" data-name="Path 27699" d="M115.2.071h-11V108.1h11Z" transform="translate(17.047 0)" fill="#383838"/>
    <path id="Path_27700" data-name="Path 27700" d="M128.6.071h-5.5V108.1h5.5Z" transform="translate(20.147 0)" fill="#383838"/>
    <path id="Path_27701" data-name="Path 27701" d="M138.045.071h-5.5V108.1h5.5Z" transform="translate(21.697 0)" fill="#383838"/>
    <path id="Path_27702" data-name="Path 27702" d="M161.667.071h-5.5V108.1h5.5Z" transform="translate(25.571 0)" fill="#383838"/>
    <path id="Path_27703" data-name="Path 27703" d="M190.788.071h-11V108.1h11Z" transform="translate(29.445 0)" fill="#383838"/>
    <path id="Path_27704" data-name="Path 27704" d="M199.461.071h-5.5V108.1h5.5Z" transform="translate(31.77 0)" fill="#383838"/>
    <path id="Path_27705" data-name="Path 27705" d="M213.634.071h-5.5V108.1h5.5Z" transform="translate(34.095 0)" fill="#383838"/>
    <path id="Path_27706" data-name="Path 27706" d="M233.306.071h-11V108.1h11Z" transform="translate(36.419 0)" fill="#383838"/>
    <path id="Path_27707" data-name="Path 27707" d="M241.98.071h-5.5V108.1h5.5Z" transform="translate(38.744 0)" fill="#383838"/>
    <path id="Path_27708" data-name="Path 27708" d="M265.6.071h-5.5V108.1h5.5Z" transform="translate(42.618 0)" fill="#383838"/>
    <path id="Path_27709" data-name="Path 27709" d="M285.274.071h-11V108.1h11Z" transform="translate(44.943 0)" fill="#383838"/>
    <path id="Path_27710" data-name="Path 27710" d="M308.12.071h-5.5V108.1h5.5Z" transform="translate(49.592 0)" fill="#383838"/>
    <path id="Path_27711" data-name="Path 27711" d="M317.569.071h-5.5V108.1h5.5Z" transform="translate(51.142 0)" fill="#383838"/>
    <path id="Path_27712" data-name="Path 27712" d="M348.239.071h-22V108.1h22Z" transform="translate(53.467 0)" fill="#383838"/>
    <path id="Path_27713" data-name="Path 27713" d="M355.364.071h-5.5V108.1h5.5Z" transform="translate(57.341 0)" fill="#383838"/>
    <path id="Path_27714" data-name="Path 27714" d="M369.537.071h-5.5V108.1h5.5Z" transform="translate(59.666 0)" fill="#383838"/>
    <path id="Path_27715" data-name="Path 27715" d="M389.984.071h-16.5V108.1h16.5Z" transform="translate(61.215 0)" fill="#383838"/>
    <path id="Path_27716" data-name="Path 27716" d="M403.382.071h-11V108.1h11Z" transform="translate(64.315 0)" fill="#383838"/>
    <path id="Path_27717" data-name="Path 27717" d="M427,.071h-11V108.1h11Z" transform="translate(68.189 0)" fill="#383838"/>
    <path id="Path_27718" data-name="Path 27718" d="M456.124.071h-16.5V108.1h16.5Z" transform="translate(72.064 0)" fill="#383838"/>
    <path id="Path_27719" data-name="Path 27719" d="M464.023.071h-5.5V108.1h5.5Z" transform="translate(75.163 0)" fill="#383838"/>
    <path id="Path_27720" data-name="Path 27720" d="M478.971.071h-11V108.1h11Z" transform="translate(76.713 0)" fill="#383838"/>
  </g>
</svg>
