<svg xmlns="http://www.w3.org/2000/svg" width="52.387" height="48.021" viewBox="0 0 52.387 48.021">
  <g id="money-integral-line-svgrepo-com" transform="translate(-74.15 -109.72)">
    <path id="Path_1" data-name="Path 1" d="M470.429,118.323c0-4.9-6.568-8.6-15.28-8.6s-15.279,3.7-15.279,8.6c0,.044.01.085.011.128h-.011V125h4.365v-.541a22.616,22.616,0,0,0,10.914,2.467A23.311,23.311,0,0,0,465.4,124.8a1.956,1.956,0,0,1,.665,1.228c0,1.686-4.353,4.237-10.914,4.237h-4.364v4.365h4.364A23.309,23.309,0,0,0,465.4,132.5a1.946,1.946,0,0,1,.663,1.23c0,1.687-4.353,4.238-10.914,4.238l-1.545.007c-.95.008-1.869.017-2.766-.007l-.107,4.364c.48.012.966.016,1.461.016q.71,0,1.444-.007l1.512-.007A23.3,23.3,0,0,0,465.4,140.2a1.953,1.953,0,0,1,.659,1.231c0,1.687-4.353,4.238-10.914,4.238h-4.364v4.365h4.364a23.306,23.306,0,0,0,10.255-2.13,1.948,1.948,0,0,1,.659,1.231c0,1.687-4.353,4.238-10.914,4.238h-4.364v4.365h4.364c8.711,0,15.279-3.7,15.279-8.6,0-.041-.005-.087-.006-.128h.006V118.451h-.011C470.419,118.408,470.429,118.366,470.429,118.323Zm-26.194,0c0-1.687,4.353-4.238,10.914-4.238s10.914,2.55,10.914,4.238-4.353,4.237-10.914,4.237S444.235,120.009,444.235,118.323Z" transform="translate(-343.892 0)" fill="#0f1f3c"/>
    <path id="Path_2" data-name="Path 2" d="M89.43,365.71c-8.711,0-15.28,3.7-15.28,8.6,0,.044.01.085.011.128H74.15v15.28c0,4.9,6.568,8.6,15.28,8.6s15.28-3.7,15.28-8.6V374.441H104.7c0-.043.011-.085.011-.128C104.709,369.409,98.141,365.71,89.43,365.71ZM78.515,382.017a1.94,1.94,0,0,1,.661-1.231,23.308,23.308,0,0,0,10.253,2.129,23.311,23.311,0,0,0,10.249-2.127,1.957,1.957,0,0,1,.665,1.228c0,1.686-4.353,4.237-10.914,4.237s-10.914-2.55-10.914-4.236ZM89.43,370.076c6.561,0,10.914,2.55,10.914,4.238s-4.353,4.236-10.914,4.236S78.515,376,78.515,374.314,82.868,370.076,89.43,370.076Zm0,23.883c-6.561,0-10.914-2.55-10.914-4.238a1.948,1.948,0,0,1,.663-1.23A23.31,23.31,0,0,0,89.43,390.62a23.308,23.308,0,0,0,10.25-2.128,1.945,1.945,0,0,1,.663,1.229C100.344,391.408,95.991,393.959,89.43,393.959Z" transform="translate(0 -240.711)" fill="#0f1f3c"/>
  </g>
</svg>
