<svg xmlns="http://www.w3.org/2000/svg" width="50" height="50" viewBox="0 0 50 50">
  <g id="vuesax_outline_brush" data-name="vuesax/outline/brush" transform="translate(-172 -188)">
    <g id="brush" transform="translate(172 188)">
      <path id="Vector" d="M1.563,26.042A1.574,1.574,0,0,1,0,24.479C0,21,0,16.667,7.812,16.667h8.333c4.688,0,4.688-.625,4.688-4.687V7.812c0-4.062,0-4.687-4.687-4.687H14.062A1.574,1.574,0,0,1,12.5,1.563,1.574,1.574,0,0,1,14.062,0h2.083c7.292,0,7.813,2.958,7.813,7.812v4.167c0,4.854-.521,7.812-7.812,7.812H7.812c-4.687,0-4.687,1.271-4.687,4.688A1.574,1.574,0,0,1,1.563,26.042Z" transform="translate(19.271 8.854)" fill="#292d32"/>
      <path id="Vector-2" data-name="Vector" d="M10.891,15.625H2.557a1.572,1.572,0,0,1-1.479-1.062,21.6,21.6,0,0,1,0-13.479A1.564,1.564,0,0,1,2.557,0h8.333A1.572,1.572,0,0,1,12.37,1.062a21.311,21.311,0,0,1,0,13.479A1.544,1.544,0,0,1,10.891,15.625ZM3.724,12.5H9.745a18.334,18.334,0,0,0,0-9.375H3.724A18.334,18.334,0,0,0,3.724,12.5Z" transform="translate(14.109 2.604)" fill="#292d32"/>
      <path id="Vector-3" data-name="Vector" d="M9.9,15.625H7.812C2.771,15.625,0,12.854,0,7.812S2.771,0,7.812,0H9.9a1.545,1.545,0,0,1,1.333.75,1.526,1.526,0,0,1,.062,1.521,11.663,11.663,0,0,0,0,11.1,1.545,1.545,0,0,1-1.4,2.25ZM7.563,3.125c-3.1.083-4.437,1.479-4.437,4.687,0,3.187,1.333,4.6,4.417,4.688A14.318,14.318,0,0,1,7.563,3.125Z" transform="translate(6.771 2.604)" fill="#292d32"/>
      <path id="Vector-4" data-name="Vector" d="M3.652,15.625H1.569a1.545,1.545,0,0,1-1.333-.75,1.526,1.526,0,0,1-.062-1.521,11.779,11.779,0,0,0,0-11.1A1.579,1.579,0,0,1,.236.729,1.572,1.572,0,0,1,1.569,0H3.652c5.042,0,7.812,2.771,7.812,7.812S8.694,15.625,3.652,15.625Zm.25-12.5a14.453,14.453,0,0,1,0,9.375c3.1-.083,4.417-1.479,4.417-4.688C8.34,4.6,7.006,3.208,3.9,3.125Z" transform="translate(23.431 2.604)" fill="#292d32"/>
      <path id="Vector-5" data-name="Vector" d="M6.771,15.625H4.688C2.542,15.625,0,14.813,0,10.938V4.688C0,.812,2.542,0,4.688,0H6.771c2.146,0,4.687.812,4.687,4.688v6.25C11.458,14.813,8.917,15.625,6.771,15.625ZM4.688,3.125c-1.562,0-1.562.458-1.562,1.563v6.25c0,1.1,0,1.563,1.563,1.563H6.771c1.562,0,1.562-.458,1.562-1.562V4.688c0-1.1,0-1.562-1.562-1.562Z" transform="translate(15.104 31.771)" fill="#292d32"/>
      <path id="Vector-6" data-name="Vector" d="M0,0H50V50H0Z" fill="none" opacity="0"/>
    </g>
  </g>
</svg>
