<svg xmlns="http://www.w3.org/2000/svg" width="34" height="34" viewBox="0 0 34 34">
  <g id="Group_38017" data-name="Group 38017" transform="translate(-0.5)">
    <circle id="Ellipse_128" data-name="Ellipse 128" cx="17" cy="17" r="17" transform="translate(0.5)" fill="#017efb"/>
    <g id="vuesax_outline_brush" data-name="vuesax/outline/brush" transform="translate(-163.5 -180)">
      <g id="brush" transform="translate(172 188)">
        <path id="Vector" d="M.563,9.375A.567.567,0,0,1,0,8.813C0,7.56,0,6,2.813,6h3C7.5,6,7.5,5.775,7.5,4.313v-1.5c0-1.462,0-1.687-1.687-1.687h-.75A.567.567,0,0,1,4.5.563.567.567,0,0,1,5.063,0h.75C8.438,0,8.625,1.065,8.625,2.813v1.5c0,1.747-.187,2.813-2.812,2.813h-3c-1.687,0-1.687.457-1.687,1.688A.567.567,0,0,1,.563,9.375Z" transform="translate(6.938 3.188)" fill="#fff"/>
        <path id="Vector-2" data-name="Vector" d="M3.921,5.625h-3a.566.566,0,0,1-.533-.383A7.778,7.778,0,0,1,.388.39.563.563,0,0,1,.921,0h3a.566.566,0,0,1,.533.382,7.672,7.672,0,0,1,0,4.852A.556.556,0,0,1,3.921,5.625ZM1.341,4.5H3.508a6.6,6.6,0,0,0,0-3.375H1.341A6.6,6.6,0,0,0,1.341,4.5Z" transform="translate(5.079 0.938)" fill="#fff"/>
        <path id="Vector-3" data-name="Vector" d="M3.563,5.625h-.75A2.536,2.536,0,0,1,0,2.813,2.536,2.536,0,0,1,2.813,0h.75a.556.556,0,0,1,.48.27.549.549,0,0,1,.022.547,4.2,4.2,0,0,0,0,4,.556.556,0,0,1-.5.81Zm-.84-4.5c-1.117.03-1.6.533-1.6,1.688S1.6,4.47,2.715,4.5A5.154,5.154,0,0,1,2.723,1.125Z" transform="translate(2.438 0.938)" fill="#fff"/>
        <path id="Vector-4" data-name="Vector" d="M1.315,5.625H.565a.556.556,0,0,1-.48-.27.549.549,0,0,1-.022-.548,4.24,4.24,0,0,0,0-4A.569.569,0,0,1,.085.263.566.566,0,0,1,.565,0h.75A2.536,2.536,0,0,1,4.127,2.813,2.536,2.536,0,0,1,1.315,5.625Zm.09-4.5A5.2,5.2,0,0,1,1.4,4.5c1.118-.03,1.59-.533,1.59-1.687S2.522,1.155,1.4,1.125Z" transform="translate(8.435 0.938)" fill="#fff"/>
        <path id="Vector-5" data-name="Vector" d="M2.438,5.625h-.75A1.511,1.511,0,0,1,0,3.938V1.688A1.511,1.511,0,0,1,1.688,0h.75A1.511,1.511,0,0,1,4.125,1.688v2.25A1.511,1.511,0,0,1,2.438,5.625Zm-.75-4.5c-.563,0-.563.165-.563.563v2.25c0,.4,0,.562.563.562h.75C3,4.5,3,4.335,3,3.938V1.688c0-.4,0-.563-.562-.563Z" transform="translate(5.438 11.438)" fill="#fff"/>
        <path id="Vector-6" data-name="Vector" d="M0,0H18V18H0Z" fill="none" opacity="0"/>
      </g>
    </g>
  </g>
</svg>
