<svg xmlns="http://www.w3.org/2000/svg" width="20.106" height="19.609" viewBox="2315.06 5968.941 20.106 19.609"><g data-name="factory-svgrepo-com"><g data-name="Groupe 38118"><g data-name="Groupe 38117"><path d="M2323.999 5978.298v-6.74l-1.559 1.362v-3.979h-1.442v5.24l-.748.654v-3.278l-2.456 2.149v-4.428h-1.442v5.68h.01l-1.302 1.138v12.454h20.107v-10.252h-11.168Zm-5.19-2.202v11.012h-2.307v-10.357l2.307-2.017v1.362Zm3.748 2.202v8.81h-2.307v-10.357l2.307-2.017v3.564Zm7.33 8.81h-1.818v-1.818h1.818v1.818Zm3.838 0h-2.396v-3.26h-4.702v3.26h-2.628v-7.368h9.726v7.368Z" fill="gray" fill-rule="evenodd" data-name="Tracé 27677"/></g></g><g data-name="Groupe 38120"><g data-name="Groupe 38119"><path d="M2326.67 5981.135h4.613v1.442h-4.614v-1.442z" fill="gray" fill-rule="evenodd" data-name="Rectangle 17420"/></g></g></g></svg>