<svg xmlns="http://www.w3.org/2000/svg" width="24" height="24" viewBox="0 0 24 24">
  <g id="vuesax_linear_buildings-2" data-name="vuesax/linear/buildings-2" transform="translate(-492 -188)">
    <g id="buildings-2">
      <path id="Vector" d="M1.885,16.769A2.649,2.649,0,0,1-.75,13.8V2.2A2.65,2.65,0,0,1,2.2-.75H6.4A2.65,2.65,0,0,1,9.35,2.2V4a.75.75,0,1,1-1.5,0V2.15a.751.751,0,0,1,.008-.106,1.15,1.15,0,0,0-1.3-1.3A.749.749,0,0,1,6.45.75H2.15A.75.75,0,0,1,2.044.742a1.15,1.15,0,0,0-1.3,1.3A.751.751,0,0,1,.75,2.15v11.7a.751.751,0,0,1-.008.106,1.15,1.15,0,0,0,1.3,1.3.751.751,0,0,1,.106-.008H4.7a.75.75,0,1,1,0,1.5H2.2A2.622,2.622,0,0,1,1.885,16.769Z" transform="translate(494 190)" fill="gray"/>
      <path id="Vector-2" data-name="Vector" d="M2.121-.771a2.9,2.9,0,0,1,.348.021H8.212A2.885,2.885,0,0,1,11.42,2.47V13.53a2.885,2.885,0,0,1-3.208,3.22H2.469a2.9,2.9,0,0,1-.348.021,2.873,2.873,0,0,1-2.045-.847A2.907,2.907,0,0,1-.75,13.531V2.469A2.907,2.907,0,0,1,.076.076,2.873,2.873,0,0,1,2.121-.771ZM8.26.75H2.42a.75.75,0,0,1-.1-.007A1.392,1.392,0,0,0,.743,2.315a.75.75,0,0,1,.007.1V13.58a.75.75,0,0,1-.007.1,1.4,1.4,0,0,0,.394,1.179,1.383,1.383,0,0,0,.984.408,1.4,1.4,0,0,0,.194-.014.75.75,0,0,1,.1-.007H8.26a.751.751,0,0,1,.1.007,1.385,1.385,0,0,0,1.563-1.57.75.75,0,0,1-.008-.107V2.42a.75.75,0,0,1,.008-.107A1.385,1.385,0,0,0,8.364.743.751.751,0,0,1,8.26.75Z" transform="translate(498.7 194)" fill="gray"/>
      <path id="Vector-3" data-name="Vector" d="M6.715,16.769A2.621,2.621,0,0,1,6.4,16.75H3.97a.75.75,0,1,1,0-1.5H6.45a.751.751,0,0,1,.106.008,1.15,1.15,0,0,0,1.3-1.3.751.751,0,0,1-.008-.106V2.15a.751.751,0,0,1,.008-.106,1.15,1.15,0,0,0-1.3-1.3A.751.751,0,0,1,6.45.75H2.15A.751.751,0,0,1,2.044.742a1.15,1.15,0,0,0-1.3,1.3A.751.751,0,0,1,.75,2.15V4A.75.75,0,0,1,0,4.75.75.75,0,0,1-.75,4V2.2A2.65,2.65,0,0,1,2.2-.75H6.4A2.65,2.65,0,0,1,9.35,2.2V13.8a2.649,2.649,0,0,1-2.635,2.968Z" transform="translate(505.4 190)" fill="gray"/>
      <path id="Vector-4" data-name="Vector" d="M4,.75H0A.75.75,0,0,1-.75,0,.75.75,0,0,1,0-.75H4A.75.75,0,0,1,4.75,0,.75.75,0,0,1,4,.75Z" transform="translate(502 199)" fill="gray"/>
      <path id="Vector-5" data-name="Vector" d="M4,.75H0A.75.75,0,0,1-.75,0,.75.75,0,0,1,0-.75H4A.75.75,0,0,1,4.75,0,.75.75,0,0,1,4,.75Z" transform="translate(502 202)" fill="gray"/>
      <path id="Vector-6" data-name="Vector" d="M0,3.75A.75.75,0,0,1-.75,3V0A.75.75,0,0,1,0-.75.75.75,0,0,1,.75,0V3A.75.75,0,0,1,0,3.75Z" transform="translate(504 207)" fill="gray"/>
      <path id="Vector-7" data-name="Vector" d="M0,0H24V24H0Z" transform="translate(492 188)" fill="none" opacity="0"/>
    </g>
  </g>
</svg>
