<svg xmlns="http://www.w3.org/2000/svg" width="21.669" height="20.122" viewBox="2314.279 5930.761 21.669 20.122"><g data-name="office-building-svgrepo-com"><path d="M2317.374 5932.309v17.025h9.287v-17.025h-9.287Zm-.774-1.548h10.835c.427 0 .774.346.774.774v18.573a.774.774 0 0 1-.774.774H2316.6a.774.774 0 0 1-.774-.774v-18.573c0-.428.347-.774.774-.774Z" fill="gray" fill-rule="evenodd" data-name="Tracé 27603"/><path d="M2318.922 5935.404h6.191v1.548h-6.191v-1.548Zm0 4.644h6.191v1.547h-6.191v-1.547Zm0 4.643h6.191v1.548h-6.191v-1.548Zm9.287-3.096h3.096v1.548h-3.096v-1.548Zm0 3.096h3.096v1.548h-3.096v-1.548Zm-13.93 4.643h21.669v1.548h-21.67v-1.548Z" fill="gray" fill-rule="evenodd" data-name="Tracé 27604"/><path d="M2328.209 5938.5v10.834h4.643V5938.5h-4.643Zm-.774-1.548h6.191c.428 0 .774.346.774.774v12.382a.774.774 0 0 1-.774.774h-6.191a.774.774 0 0 1-.774-.774v-12.382c0-.428.347-.774.774-.774Z" fill="gray" fill-rule="evenodd" data-name="Tracé 27605"/></g></svg>