<svg xmlns="http://www.w3.org/2000/svg" width="24" height="24" viewBox="0 0 24 24">
  <g id="vuesax_linear_edit" data-name="vuesax/linear/edit" transform="translate(-620 -252)">
    <g id="edit">
      <path id="Vector" d="M13,20.75H7c-2.77,0-4.647-.586-5.905-1.845S-.75,15.77-.75,13V7c0-2.77.586-4.647,1.845-5.905S4.23-.75,7-.75H9A.75.75,0,0,1,9.75,0,.75.75,0,0,1,9,.75H7C4.654.75,3.114,1.2,2.155,2.155S.75,4.654.75,7v6c0,2.346.447,3.886,1.405,4.845S4.654,19.25,7,19.25h6c2.346,0,3.886-.447,4.845-1.405S19.25,15.346,19.25,13V11a.75.75,0,0,1,1.5,0v2c0,2.77-.586,4.647-1.845,5.905S15.77,20.75,13,20.75Z" transform="translate(622 254)" fill="gray"/>
      <path id="Vector-2" data-name="Vector" d="M11.45-.75A4.329,4.329,0,0,1,14.461.741c1.991,1.991,1.991,4.01,0,6l-7.88,7.88-.009.009a3.508,3.508,0,0,1-1.736.864l-3.01.43a2.753,2.753,0,0,1-.376.026,2.178,2.178,0,0,1-1.683-.734,2.265,2.265,0,0,1-.49-1.843l.43-3.007A3.421,3.421,0,0,1,.581,8.621L8.461.741A4.264,4.264,0,0,1,11.45-.75ZM5.526,13.556,13.4,5.681a3.1,3.1,0,0,0,1.044-1.773A2.735,2.735,0,0,0,13.4,1.8,2.944,2.944,0,0,0,11.45.75h0A2.892,2.892,0,0,0,9.521,1.8l-7.88,7.88a2,2,0,0,0-.448.893l-.43,3.012a.8.8,0,0,0,.14.648.7.7,0,0,0,.548.215,1.233,1.233,0,0,0,.167-.012l3.006-.429A2.1,2.1,0,0,0,5.526,13.556Z" transform="translate(627.049 253.749)" fill="gray"/>
      <path id="Vector-3" data-name="Vector" d="M4.94,5.69a.75.75,0,0,1-.2-.029,7.944,7.944,0,0,1-3.445-2.02A7.884,7.884,0,0,1-.722.2.75.75,0,0,1-.2-.722.75.75,0,0,1,.722-.2,6.437,6.437,0,0,0,5.144,4.218a.75.75,0,0,1-.2,1.472Z" transform="translate(634.91 256.15)" fill="gray"/>
      <path id="Vector-4" data-name="Vector" d="M0,0H24V24H0Z" transform="translate(620 252)" fill="none" opacity="0"/>
    </g>
  </g>
</svg>
