<svg xmlns="http://www.w3.org/2000/svg" width="19.199" height="19.194" viewBox="0 0 19.199 19.194"><path d="M12.972,3.375H12.94a9.6,9.6,0,0,0,0,19.194h.032a9.6,9.6,0,1,0,0-19.194Zm8.314,8.951h-3.58a18.17,18.17,0,0,0-.452-3.516,14.056,14.056,0,0,0,2.293-.969A8.266,8.266,0,0,1,21.287,12.326Zm-8.96,0H9.475a16.4,16.4,0,0,1,.406-3.188,14.038,14.038,0,0,0,2.445.328Zm0,1.292v2.856a14.1,14.1,0,0,0-2.445.328,16.4,16.4,0,0,1-.406-3.184Zm1.292,0h2.828A16.3,16.3,0,0,1,16.04,16.8a13.772,13.772,0,0,0-2.422-.323Zm0-1.292V9.466a14.1,14.1,0,0,0,2.422-.323,16.352,16.352,0,0,1,.406,3.184Zm5.048-5.44a12.818,12.818,0,0,1-1.753.715A9.527,9.527,0,0,0,15.69,5.087,8.349,8.349,0,0,1,18.666,6.886ZM15.694,7.934a12.985,12.985,0,0,1-2.076.277V4.824A5.591,5.591,0,0,1,15.694,7.934ZM12.326,4.805v3.4a12.761,12.761,0,0,1-2.1-.281A5.588,5.588,0,0,1,12.326,4.805Zm-2.1.3A9.6,9.6,0,0,0,9.009,7.6a13.106,13.106,0,0,1-1.73-.711A8.224,8.224,0,0,1,10.222,5.1ZM6.4,7.846a13.778,13.778,0,0,0,2.27.96,17.438,17.438,0,0,0-.452,3.516H4.662A8.224,8.224,0,0,1,6.4,7.846ZM4.658,13.618H8.21a18.123,18.123,0,0,0,.452,3.516,14.618,14.618,0,0,0-2.27.96A8.268,8.268,0,0,1,4.658,13.618Zm2.616,5.44a12.913,12.913,0,0,1,1.735-.711,9.636,9.636,0,0,0,1.213,2.5A8.429,8.429,0,0,1,7.274,19.058Zm2.953-1.043a12.828,12.828,0,0,1,2.1-.281v3.405A5.58,5.58,0,0,1,10.227,18.015Zm3.391,3.105V17.729a12.985,12.985,0,0,1,2.076.277A5.588,5.588,0,0,1,13.618,21.121Zm2.076-.263a9.527,9.527,0,0,0,1.223-2.515,12.607,12.607,0,0,1,1.753.72A8.445,8.445,0,0,1,15.694,20.858ZM19.547,18.1a14.056,14.056,0,0,0-2.293-.969,18.075,18.075,0,0,0,.452-3.511h3.58A8.23,8.23,0,0,1,19.547,18.1Z" transform="translate(-3.375 -3.375)" fill="gray"/></svg>