<svg xmlns="http://www.w3.org/2000/svg" width="20" height="19.47" viewBox="2313 5818.53 20 19.47"><g data-name="vuesax/linear/house"><g data-name="house"><path d="M2313 5838h20M2313.95 5838l.05-12.03c0-.61.29-1.19.77-1.57l7-5.45c.72-.56 1.73-.56 2.46 0l7 5.44c.49.38.77.96.77 1.58V5838" stroke-linejoin="round" stroke-linecap="round" stroke-width="1.5" stroke="gray" fill="transparent" data-name="Vector"/><path d="M2324 5833h-2c-.83 0-1.5.67-1.5 1.5v3.5h5v-3.5c0-.83-.67-1.5-1.5-1.5ZM2320.5 5829.75h-2c-.55 0-1-.45-1-1v-1.5c0-.55.45-1 1-1h2c.55 0 1 .45 1 1v1.5c0 .55-.45 1-1 1ZM2327.5 5829.75h-2c-.55 0-1-.45-1-1v-1.5c0-.55.45-1 1-1h2c.55 0 1 .45 1 1v1.5c0 .55-.45 1-1 1ZM2330 5823l-.03-3h-4.4" stroke-linejoin="round" stroke-linecap="round" stroke-width="1.5" stroke="gray" fill="transparent" data-name="Vector"/></g></g></svg>