<svg xmlns="http://www.w3.org/2000/svg" width="24" height="24" viewBox="0 0 24 24">
  <g id="money" transform="translate(-172 -252)">
    <path id="Vector" d="M15,17.75H5A5.869,5.869,0,0,1,.865,16.362,5.686,5.686,0,0,1-.75,12V5A5.686,5.686,0,0,1,.865.638,5.869,5.869,0,0,1,5-.75H15A5.869,5.869,0,0,1,19.135.638,5.686,5.686,0,0,1,20.75,5v7a5.686,5.686,0,0,1-1.615,4.362A5.869,5.869,0,0,1,15,17.75ZM5,.75a4.442,4.442,0,0,0-3.115.987A4.271,4.271,0,0,0,.75,5v7a4.271,4.271,0,0,0,1.135,3.263A4.442,4.442,0,0,0,5,16.25H15a4.442,4.442,0,0,0,3.115-.987A4.271,4.271,0,0,0,19.25,12V5a4.271,4.271,0,0,0-1.135-3.263A4.442,4.442,0,0,0,15,.75Z" transform="translate(174 255.5)" fill="gray"/>
    <path id="Vector-2" data-name="Vector" d="M3-.75A3.75,3.75,0,1,1-.75,3,3.754,3.754,0,0,1,3-.75Zm0,6A2.25,2.25,0,1,0,.75,3,2.253,2.253,0,0,0,3,5.25Z" transform="translate(181 261)" fill="gray"/>
    <path id="Vector-3" data-name="Vector" d="M0,5.75A.75.75,0,0,1-.75,5V0A.75.75,0,0,1,0-.75.75.75,0,0,1,.75,0V5A.75.75,0,0,1,0,5.75Z" transform="translate(177.5 261.5)" fill="gray"/>
    <path id="Vector-4" data-name="Vector" d="M0,5.75A.75.75,0,0,1-.75,5V0A.75.75,0,0,1,0-.75.75.75,0,0,1,.75,0V5A.75.75,0,0,1,0,5.75Z" transform="translate(190.5 261.5)" fill="gray"/>
    <path id="Vector-5" data-name="Vector" d="M0,0H24V24H0Z" transform="translate(172 252)" fill="none" opacity="0"/>
  </g>
</svg>
