<svg xmlns="http://www.w3.org/2000/svg" width="20.096" height="18.087" viewBox="2728.75 6209.664 20.096 18.087"><path d="M2735.026 6214.433h2.764m-2.764 4.02h2.764m-2.764 4.018h2.764m3.517-8.038h2.763m-2.763 4.02h2.763m-2.763 4.018h2.763m3.517 6.03v-14.872c0-1.126 0-1.688-.22-2.118a2.01 2.01 0 0 0-.878-.878c-.43-.22-.992-.22-2.118-.22h-9.646c-1.125 0-1.688 0-2.118.22a2.01 2.01 0 0 0-.878.878c-.22.43-.22.992-.22 2.118v14.871m18.087 0H2729.5" stroke-linejoin="round" stroke-linecap="round" stroke-width="1.5" stroke="gray" fill="transparent" data-name="building-03-svgrepo-com"/></svg>