<svg xmlns="http://www.w3.org/2000/svg" width="10.2" height="14.271" viewBox="0 0 10.2 14.271">
  <g id="Group_38127" data-name="Group 38127" transform="translate(0.6 0.6)">
    <path id="Vector" d="M2.817,6.453H2.8A3.527,3.527,0,1,1,6.459,2.93a3.519,3.519,0,0,1-3.4,3.523.6.6,0,0,1-.08,0l-.047,0-.057,0ZM2.93.6a2.327,2.327,0,0,0-.123,4.652,1.831,1.831,0,0,1,.241,0A2.327,2.327,0,0,0,2.93.6Z" transform="translate(1.462 0)" fill="gray"/>
    <path id="Vector-2" data-name="Vector" d="M4.5-.6A6.593,6.593,0,0,1,8.136.407,2.946,2.946,0,0,1,9.6,2.836,2.956,2.956,0,0,1,8.136,5.277,6.594,6.594,0,0,1,4.5,6.289,6.593,6.593,0,0,1,.864,5.277,2.946,2.946,0,0,1-.6,2.848,2.956,2.956,0,0,1,.864.407,6.644,6.644,0,0,1,4.5-.6Zm0,5.689A5.388,5.388,0,0,0,7.469,4.28,1.806,1.806,0,0,0,8.4,2.838a1.8,1.8,0,0,0-.93-1.433A5.465,5.465,0,0,0,4.5.6a5.437,5.437,0,0,0-2.976.806A1.8,1.8,0,0,0,.6,2.846a1.8,1.8,0,0,0,.93,1.433A5.389,5.389,0,0,0,4.5,5.089Z" transform="translate(0 7.382)" fill="gray"/>
  </g>
</svg>
