<svg xmlns="http://www.w3.org/2000/svg" width="21.5" height="21.5" viewBox="0 0 21.5 21.5">
  <g id="Group_38299" data-name="Group 38299" transform="translate(0.75 0.75)">
    <path id="Vector" d="M15.063-.75h0a5.484,5.484,0,0,1,3.794,1.892,5.241,5.241,0,0,1,1.874,4.169A5.673,5.673,0,0,1,18.858,8.7L8.491,19.071l-.009.009A4.42,4.42,0,0,1,6.33,20.152l-3.96.566a3.379,3.379,0,0,1-.461.032,2.632,2.632,0,0,1-2.034-.884,2.747,2.747,0,0,1-.589-2.236l.565-3.958a4.305,4.305,0,0,1,1.08-2.161L11.3,1.142A5.389,5.389,0,0,1,15.063-.75ZM7.435,18.006,17.8,7.642a4.286,4.286,0,0,0,1.442-2.477A3.809,3.809,0,0,0,17.8,2.2,4.088,4.088,0,0,0,15.063.75h0a4.016,4.016,0,0,0-2.7,1.453L1.992,12.571a2.833,2.833,0,0,0-.656,1.31L.77,17.844a1.28,1.28,0,0,0,.24,1.041,1.144,1.144,0,0,0,.9.365,1.86,1.86,0,0,0,.253-.018l3.956-.565A2.958,2.958,0,0,0,7.435,18.006Z" fill="gray"/>
    <path id="Vector-2" data-name="Vector" d="M4.94,5.69a.75.75,0,0,1-.2-.029,7.944,7.944,0,0,1-3.445-2.02A7.884,7.884,0,0,1-.722.2.75.75,0,0,1-.2-.722.75.75,0,0,1,.722-.2,6.437,6.437,0,0,0,5.144,4.218a.75.75,0,0,1-.2,1.472Z" transform="translate(11.536 3.524)" fill="gray"/>
  </g>
</svg>
