<svg xmlns="http://www.w3.org/2000/svg" width="24" height="24" viewBox="0 0 24 24">
  <g id="vuesax_linear_directbox-notif" data-name="vuesax/linear/directbox-notif" transform="translate(-172 -186)">
    <g id="directbox-notif">
      <path id="Vector" d="M4,0C0,0,0,1.79,0,4V5c0,2.76,0,5,5,5h8c4,0,5-2.24,5-5V4c0-2.21,0-4-4-4a2.361,2.361,0,0,0-1.8.6L11.18,1.68a3,3,0,0,1-4.37,0L5.8.6A2.361,2.361,0,0,0,4,0Z" transform="translate(175 198)" fill="none" stroke="gray" stroke-linecap="round" stroke-linejoin="round" stroke-width="1.5"/>
      <path id="Vector-2" data-name="Vector" d="M14,10V4c0-2.21,0-4-4-4H4C0,0,0,1.79,0,4v6" transform="translate(177 188)" fill="none" stroke="gray" stroke-linecap="round" stroke-linejoin="round" stroke-width="1.5"/>
      <path id="Vector-3" data-name="Vector" d="M0,0H3.33" transform="translate(182.55 195.23)" fill="none" stroke="gray" stroke-linecap="round" stroke-linejoin="round" stroke-width="1.5"/>
      <path id="Vector-4" data-name="Vector" d="M0,0H5" transform="translate(181.72 192.23)" fill="none" stroke="gray" stroke-linecap="round" stroke-linejoin="round" stroke-width="1.5"/>
      <path id="Vector-5" data-name="Vector" d="M0,0H24V24H0Z" transform="translate(172 186)" fill="none" opacity="0"/>
    </g>
  </g>
</svg>
