<svg xmlns="http://www.w3.org/2000/svg" width="24" height="24" viewBox="0 0 24 24">
  <g id="vuesax_linear_timer-start" data-name="vuesax/linear/timer-start" transform="translate(-364 -188)">
    <g id="timer-start">
      <path id="Vector" d="M0,5.75A.75.75,0,0,1-.75,5V0A.75.75,0,0,1,0-.75.75.75,0,0,1,.75,0V5A.75.75,0,0,1,0,5.75Z" transform="translate(376 196)" fill="gray"/>
      <path id="Vector-2" data-name="Vector" d="M8.75,18.25a9.5,9.5,0,1,1,9.5-9.5.75.75,0,0,1-1.5,0,8,8,0,1,0-8,8,.75.75,0,0,1,0,1.5Z" transform="translate(367.25 192.5)" fill="gray"/>
      <path id="Vector-3" data-name="Vector" d="M6,.75H0A.75.75,0,0,1-.75,0,.75.75,0,0,1,0-.75H6A.75.75,0,0,1,6.75,0,.75.75,0,0,1,6,.75Z" transform="translate(373 190)" fill="gray"/>
      <path id="Vector-4" data-name="Vector" d="M1.257-.75a2.751,2.751,0,0,1,1.38.409l2,1.16a2.326,2.326,0,0,1,1.3,1.954,2.326,2.326,0,0,1-1.3,1.954l-2,1.16a2.751,2.751,0,0,1-1.38.409,1.875,1.875,0,0,1-1.491-.7A2.6,2.6,0,0,1-.75,3.937V1.607A2.6,2.6,0,0,1-.234-.048,1.875,1.875,0,0,1,1.257-.75Zm0,5.545a1.276,1.276,0,0,0,.627-.206l2-1.16c.348-.2.556-.448.556-.656s-.208-.454-.557-.656l-2-1.16A1.277,1.277,0,0,0,1.257.75C.816.75.75,1.287.75,1.607v2.33C.75,4.258.816,4.795,1.257,4.795Z" transform="translate(378.9 203.733)" fill="gray"/>
      <path id="Vector-5" data-name="Vector" d="M0,0H24V24H0Z" transform="translate(364 188)" fill="none" opacity="0"/>
    </g>
  </g>
</svg>
