<svg xmlns="http://www.w3.org/2000/svg" width="24" height="24" viewBox="0 0 24 24">
  <g id="vuesax_linear_document-text" data-name="vuesax/linear/document-text" transform="translate(-172 -188)">
    <g id="document-text">
      <path id="Vector" d="M13,20.75H7c-2.77,0-4.647-.586-5.905-1.845S-.75,15.77-.75,13V7c0-2.77.586-4.647,1.845-5.905S4.23-.75,7-.75h5a.75.75,0,0,1,.75.75A.75.75,0,0,1,12,.75H7C4.654.75,3.114,1.2,2.155,2.155S.75,4.654.75,7v6c0,2.346.447,3.886,1.405,4.845S4.654,19.25,7,19.25h6c2.346,0,3.886-.447,4.845-1.405S19.25,15.346,19.25,13V8a.75.75,0,0,1,1.5,0v5c0,2.77-.586,4.647-1.845,5.905S15.77,20.75,13,20.75Z" transform="translate(174 190)" fill="gray"/>
      <path id="Vector-2" data-name="Vector" d="M8,8.75H4C.582,8.75-.75,7.418-.75,4V0A.75.75,0,0,1-.287-.693.75.75,0,0,1,.53-.53l8,8A.75.75,0,0,1,8,8.75ZM.75,1.811V4c0,2.582.668,3.25,3.25,3.25H6.189Z" transform="translate(186 190)" fill="gray"/>
      <path id="Vector-3" data-name="Vector" d="M6,.75H0A.75.75,0,0,1-.75,0,.75.75,0,0,1,0-.75H6A.75.75,0,0,1,6.75,0,.75.75,0,0,1,6,.75Z" transform="translate(179 201)" fill="gray"/>
      <path id="Vector-4" data-name="Vector" d="M4,.75H0A.75.75,0,0,1-.75,0,.75.75,0,0,1,0-.75H4A.75.75,0,0,1,4.75,0,.75.75,0,0,1,4,.75Z" transform="translate(179 205)" fill="gray"/>
      <path id="Vector-5" data-name="Vector" d="M0,0H24V24H0Z" transform="translate(172 188)" fill="none" opacity="0"/>
    </g>
  </g>
</svg>
