<svg xmlns="http://www.w3.org/2000/svg" width="52.572" height="16.594" viewBox="0 0 52.572 16.594">
  <path id="Path_27693" data-name="Path 27693" d="M254.783,88.594a7.872,7.872,0,0,1-6.362-3.292,14.718,14.718,0,0,1-2.613-5.939,1,1,0,0,1,1.963-.383,12.882,12.882,0,0,0,2.231,5.1,5.852,5.852,0,0,0,5.283,2.5c1.833-.141,3.173-2.546,4.725-5.331C262.3,77.125,265.158,72,271.352,72c3.885,0,6.389,2.335,8.6,4.394,1.859,1.733,3.615,3.37,5.991,3.539,2.762.2,6.282-1.6,10.763-5.485a1,1,0,0,1,1.311,1.511c-4.97,4.313-8.852,6.21-12.217,5.969-3.081-.22-5.181-2.178-7.212-4.071C276.459,75.874,274.449,74,271.352,74c-5.019,0-7.346,4.177-9.6,8.216-1.756,3.152-3.414,6.129-6.318,6.352Q255.107,88.594,254.783,88.594Z" transform="translate(-245.789 -72)" fill="#fff"/>
</svg>
