<svg xmlns="http://www.w3.org/2000/svg" width="29.573" height="31.129" viewBox="443.891 1685.113 29.573 31.129"><g data-name="vuesax/bold/document-text"><g data-name="document-text"><path d="M464.592 1685.44c-.638-.638-1.743-.203-1.743.685v5.432c0 2.272 1.93 4.155 4.28 4.155 1.479.016 3.533.016 5.292.016.887 0 1.354-1.043.731-1.666-2.24-2.256-6.257-6.319-8.56-8.622Z" fill="#017efa" fill-rule="evenodd" data-name="Vector"/><path d="M471.907 1697.86h-4.498c-3.689 0-6.693-3.004-6.693-6.693v-4.498c0-.856-.7-1.556-1.556-1.556h-6.6c-4.793 0-8.669 3.113-8.669 8.67v13.79c0 5.556 3.876 8.669 8.67 8.669h12.233c4.794 0 8.67-3.113 8.67-8.67v-8.155c0-.856-.7-1.557-1.557-1.557Zm-14.008 11.767h-6.226c-.638 0-1.167-.53-1.167-1.167 0-.638.53-1.168 1.167-1.168h6.226c.638 0 1.168.53 1.168 1.168 0 .638-.53 1.167-1.168 1.167Zm3.113-6.226h-9.339c-.638 0-1.167-.529-1.167-1.167s.53-1.167 1.167-1.167h9.34c.637 0 1.166.529 1.166 1.167s-.529 1.167-1.167 1.167Z" fill="#017efa" fill-rule="evenodd" data-name="Vector"/></g></g></svg>