<svg xmlns="http://www.w3.org/2000/svg" width="20" height="17.13" viewBox="953 1692.43 20 17.13"><g data-name="vuesax/bold/eye"><path d="M972.25 1698.15c-2.31-3.63-5.69-5.72-9.25-5.72-1.78 0-3.51.52-5.09 1.49-1.58.98-3 2.41-4.16 4.23-1 1.57-1 4.12 0 5.69 2.31 3.64 5.69 5.72 9.25 5.72 1.78 0 3.51-.52 5.09-1.49 1.58-.98 3-2.41 4.16-4.23 1-1.56 1-4.12 0-5.69Zm-9.25 6.89c-2.24 0-4.04-1.81-4.04-4.04s1.8-4.04 4.04-4.04 4.04 1.81 4.04 4.04-1.8 4.04-4.04 4.04Z" fill="#292d32" fill-rule="evenodd" data-name="Vector"/><path d="M963 1698.14a2.855 2.855 0 0 0 0 5.71c1.57 0 2.86-1.28 2.86-2.85s-1.29-2.86-2.86-2.86Z" fill="#292d32" fill-rule="evenodd" data-name="Vector"/></g></svg>