<svg xmlns="http://www.w3.org/2000/svg" width="50.316" height="50.316" viewBox="0 0 50.316 50.316">
  <g id="vuesax_linear_building" data-name="vuesax/linear/building" transform="translate(-108 -188)">
    <g id="building" transform="translate(108 188)">
      <path id="Vector" d="M22.076,43.43H4.424A5.889,5.889,0,0,1-1.5,37.591V6.479A8.651,8.651,0,0,1,.376.74,6.518,6.518,0,0,1,5.416-1.5,9.9,9.9,0,0,1,9.758-.4l9.31,4.571a8.631,8.631,0,0,1,4.508,7.175V41.93A1.5,1.5,0,0,1,22.076,43.43ZM5.416,1.5C2.964,1.5,1.5,3.361,1.5,6.479V37.591a2.886,2.886,0,0,0,2.924,2.84H20.576V11.343a5.646,5.646,0,0,0-2.828-4.481L8.438,2.291A6.945,6.945,0,0,0,5.416,1.5Z" transform="translate(4.13 4.192)"/>
      <path id="Vector-2" data-name="Vector" d="M0-1.5a1.5,1.5,0,0,1,.312.033l.985.21.016,0L10.748.864,15,1.806a8.391,8.391,0,0,1,4.31,2.156A7.575,7.575,0,0,1,21.329,9.2a4.128,4.128,0,0,1,.025.529v7.925c0,2.7-.672,4.689-2.054,6.071s-3.368,2.054-6.071,2.054H0a1.5,1.5,0,0,1-1.5-1.5V0A1.5,1.5,0,0,1-.944-1.166,1.5,1.5,0,0,1,0-1.5ZM18.352,9.566a1.5,1.5,0,0,1-.018-.19c-.1-3.147-1.662-4.131-3.98-4.641l-4.259-.944L1.5,1.862V22.777H13.229c1.867,0,3.159-.384,3.95-1.175s1.175-2.083,1.175-3.95V9.728C18.354,9.672,18.354,9.6,18.352,9.566Z" transform="translate(26.206 21.846)"/>
      <path id="Vector-3" data-name="Vector" d="M7.275,1.5H0A1.5,1.5,0,0,1-1.5,0,1.5,1.5,0,0,1,0-1.5H7.275A1.5,1.5,0,0,1,8.775,0,1.5,1.5,0,0,1,7.275,1.5Z" transform="translate(11.531 18.869)"/>
      <path id="Vector-4" data-name="Vector" d="M7.275,1.5H0A1.5,1.5,0,0,1-1.5,0,1.5,1.5,0,0,1,0-1.5H7.275A1.5,1.5,0,0,1,8.775,0,1.5,1.5,0,0,1,7.275,1.5Z" transform="translate(11.531 27.255)"/>
      <path id="Vector-5" data-name="Vector" d="M0,0H50.316V50.316H0Z" fill="none" opacity="0"/>
    </g>
  </g>
</svg>
