<svg xmlns="http://www.w3.org/2000/svg" width="50.925" height="50.925" viewBox="0 0 50.925 50.925">
  <g id="vuesax_linear_profile-2user" data-name="vuesax/linear/profile-2user" transform="translate(-172 -252)">
    <g id="profile-2user" transform="translate(172 252)">
      <path id="Vector" d="M9.761,18.821a3.857,3.857,0,0,0-.7,0,9.432,9.432,0,1,1,.7,0Z" transform="translate(9.676 4.244)" fill="none" stroke="#000" stroke-linecap="round" stroke-linejoin="round" stroke-width="3"/>
      <path id="Vector-2" data-name="Vector" d="M.276,0A7.421,7.421,0,0,1,7.7,7.427,7.437,7.437,0,0,1,.552,14.853a2.4,2.4,0,0,0-.552,0" transform="translate(34.544 8.487)" fill="none" stroke="#000" stroke-linecap="round" stroke-linejoin="round" stroke-width="3"/>
      <path id="Vector-3" data-name="Vector" d="M3.851,2.912c-5.135,3.437-5.135,9.039,0,12.455,5.835,3.9,15.4,3.9,21.24,0,5.135-3.437,5.135-9.039,0-12.455C19.277-.971,9.708-.971,3.851,2.912Z" transform="translate(4.976 27.982)" fill="none" stroke="#000" stroke-linecap="round" stroke-linejoin="round" stroke-width="3"/>
      <path id="Vector-4" data-name="Vector" d="M0,12.731a10.264,10.264,0,0,0,4.159-1.846c3.31-2.483,3.31-6.578,0-9.06A10.553,10.553,0,0,0,.064,0" transform="translate(38.915 29.706)" fill="none" stroke="#000" stroke-linecap="round" stroke-linejoin="round" stroke-width="3"/>
      <path id="Vector-5" data-name="Vector" d="M0,0H50.925V50.925H0Z" transform="translate(50.925 50.925) rotate(180)" fill="none" opacity="0"/>
    </g>
  </g>
</svg>
