<svg id="Group_38251" data-name="Group 38251" xmlns="http://www.w3.org/2000/svg" width="17" height="18.22" viewBox="0 0 17 18.22">
  <path id="Vector" d="M5.92,2.96A2.96,2.96,0,1,1,2.96,0,2.96,2.96,0,0,1,5.92,2.96Z" transform="translate(11.08)" fill="#82858e"/>
  <path id="Vector-2" data-name="Vector" d="M5.92,2.96A2.96,2.96,0,1,1,2.96,0,2.96,2.96,0,0,1,5.92,2.96Z" fill="#82858e"/>
  <path id="Vector-3" data-name="Vector" d="M5.92,2.96A2.96,2.96,0,1,1,2.96,0,2.96,2.96,0,0,1,5.92,2.96Z" transform="translate(11.08 12.3)" fill="#82858e"/>
  <path id="Vector-4" data-name="Vector" d="M5.92,2.96A2.96,2.96,0,1,1,2.96,0,2.96,2.96,0,0,1,5.92,2.96Z" transform="translate(0 12.3)" fill="#82858e"/>
</svg>
