<svg id="vuesax_linear_setting-4" data-name="vuesax/linear/setting-4" xmlns="http://www.w3.org/2000/svg" width="24" height="24" viewBox="0 0 24 24">
  <g id="setting-4">
    <path id="Vector" d="M6,.75H0A.75.75,0,0,1-.75,0,.75.75,0,0,1,0-.75H6A.75.75,0,0,1,6.75,0,.75.75,0,0,1,6,.75Z" transform="translate(16 6.5)" fill="#636363"/>
    <path id="Vector-2" data-name="Vector" d="M4,.75H0A.75.75,0,0,1-.75,0,.75.75,0,0,1,0-.75H4A.75.75,0,0,1,4.75,0,.75.75,0,0,1,4,.75Z" transform="translate(2 6.5)" fill="#636363"/>
    <path id="Vector-3" data-name="Vector" d="M3.5-.75A4.25,4.25,0,1,1-.75,3.5,4.255,4.255,0,0,1,3.5-.75Zm0,7A2.75,2.75,0,1,0,.75,3.5,2.753,2.753,0,0,0,3.5,6.25Z" transform="translate(6.5 3)" fill="#636363"/>
    <path id="Vector-4" data-name="Vector" d="M4,.75H0A.75.75,0,0,1-.75,0,.75.75,0,0,1,0-.75H4A.75.75,0,0,1,4.75,0,.75.75,0,0,1,4,.75Z" transform="translate(18 17.5)" fill="#636363"/>
    <path id="Vector-5" data-name="Vector" d="M6,.75H0A.75.75,0,0,1-.75,0,.75.75,0,0,1,0-.75H6A.75.75,0,0,1,6.75,0,.75.75,0,0,1,6,.75Z" transform="translate(2 17.5)" fill="#636363"/>
    <path id="Vector-6" data-name="Vector" d="M3.5-.75A4.25,4.25,0,1,1-.75,3.5,4.255,4.255,0,0,1,3.5-.75Zm0,7A2.75,2.75,0,1,0,.75,3.5,2.753,2.753,0,0,0,3.5,6.25Z" transform="translate(10.5 14)" fill="#636363"/>
    <path id="Vector-7" data-name="Vector" d="M0,0H24V24H0Z" fill="none" opacity="0"/>
  </g>
</svg>
