<svg id="vuesax_linear_task" data-name="vuesax/linear/task" xmlns="http://www.w3.org/2000/svg" width="24" height="24" viewBox="0 0 24 24">
  <g id="task">
    <path id="Vector" d="M10,.75H0A.75.75,0,0,1-.75,0,.75.75,0,0,1,0-.75H10a.75.75,0,0,1,.75.75A.75.75,0,0,1,10,.75Z" transform="translate(11 19.5)" fill="#636363"/>
    <path id="Vector-2" data-name="Vector" d="M10,.75H0A.75.75,0,0,1-.75,0,.75.75,0,0,1,0-.75H10a.75.75,0,0,1,.75.75A.75.75,0,0,1,10,.75Z" transform="translate(11 12.5)" fill="#636363"/>
    <path id="Vector-3" data-name="Vector" d="M10,.75H0A.75.75,0,0,1-.75,0,.75.75,0,0,1,0-.75H10a.75.75,0,0,1,.75.75A.75.75,0,0,1,10,.75Z" transform="translate(11 5.5)" fill="#636363"/>
    <path id="Vector-4" data-name="Vector" d="M1,3.75a.748.748,0,0,1-.53-.22l-1-1a.75.75,0,0,1,0-1.061.75.75,0,0,1,1.061,0l.47.47L3.47-.53a.75.75,0,0,1,1.061,0A.75.75,0,0,1,4.53.53l-3,3A.748.748,0,0,1,1,3.75Z" transform="translate(3 3.5)" fill="#636363"/>
    <path id="Vector-5" data-name="Vector" d="M1,3.75a.748.748,0,0,1-.53-.22l-1-1a.75.75,0,0,1,0-1.061.75.75,0,0,1,1.061,0l.47.47L3.47-.53a.75.75,0,0,1,1.061,0A.75.75,0,0,1,4.53.53l-3,3A.748.748,0,0,1,1,3.75Z" transform="translate(3 10.5)" fill="#636363"/>
    <path id="Vector-6" data-name="Vector" d="M1,3.75a.748.748,0,0,1-.53-.22l-1-1a.75.75,0,0,1,0-1.061.75.75,0,0,1,1.061,0l.47.47L3.47-.53a.75.75,0,0,1,1.061,0A.75.75,0,0,1,4.53.53l-3,3A.748.748,0,0,1,1,3.75Z" transform="translate(3 17.5)" fill="#636363"/>
    <path id="Vector-7" data-name="Vector" d="M0,0H24V24H0Z" fill="none" opacity="0"/>
  </g>
</svg>
