<svg id="setting-2" xmlns="http://www.w3.org/2000/svg" width="14.341" height="14.341" viewBox="0 0 14.341 14.341">
  <path id="Vector" d="M1.793-.5A2.293,2.293,0,1,1-.5,1.793,2.3,2.3,0,0,1,1.793-.5Zm0,3.585A1.293,1.293,0,1,0,.5,1.793,1.294,1.294,0,0,0,1.793,3.085Z" transform="translate(5.378 5.378)" fill="#fff"/>
  <path id="Vector-2" data-name="Vector" d="M7.893,11.78a1.516,1.516,0,0,1-1.3-.74l0-.005-.066-.114c-.166-.289-.365-.454-.548-.454s-.385.166-.553.454l-.066.113,0,.005a1.516,1.516,0,0,1-1.3.74,1.472,1.472,0,0,1-.748-.2l-1.031-.59a1.635,1.635,0,0,1-.6-2.232.75.75,0,0,0,.119-.7A.748.748,0,0,0,1.135,7.8,1.637,1.637,0,0,1-.5,6.166V5.114A1.637,1.637,0,0,1,1.135,3.479.748.748,0,0,0,1.8,3.23a.749.749,0,0,0-.119-.7,1.635,1.635,0,0,1,.6-2.232L3.316-.3a1.472,1.472,0,0,1,.748-.2,1.516,1.516,0,0,1,1.3.74l0,.005.066.114c.166.289.365.454.548.454s.385-.166.553-.454L6.594.245,6.6.24a1.516,1.516,0,0,1,1.3-.74,1.472,1.472,0,0,1,.748.2l1.031.59a1.635,1.635,0,0,1,.6,2.232.75.75,0,0,0-.119.7.748.748,0,0,0,.666.249,1.637,1.637,0,0,1,1.635,1.635V6.166A1.637,1.637,0,0,1,10.821,7.8a.748.748,0,0,0-.666.249.749.749,0,0,0,.119.7,1.633,1.633,0,0,1-.6,2.232l-1.03.59A1.473,1.473,0,0,1,7.893,11.78Zm-.435-1.249a.511.511,0,0,0,.435.249.466.466,0,0,0,.241-.066l.007,0,1.034-.592a.624.624,0,0,0,.3-.382.635.635,0,0,0-.063-.483,1.686,1.686,0,0,1-.119-1.7,1.686,1.686,0,0,1,1.533-.75.636.636,0,0,0,.635-.635V5.114a.636.636,0,0,0-.635-.635,1.686,1.686,0,0,1-1.533-.75,1.688,1.688,0,0,1,.12-1.7.635.635,0,0,0-.234-.863L8.141.571l-.007,0A.466.466,0,0,0,7.893.5a.511.511,0,0,0-.435.249l-.064.11a1.692,1.692,0,0,1-1.418.953A1.682,1.682,0,0,1,4.562.857L4.5.749A.511.511,0,0,0,4.064.5a.466.466,0,0,0-.241.066l-.007,0-1.034.592a.635.635,0,0,0-.234.863,1.687,1.687,0,0,1,.12,1.7,1.686,1.686,0,0,1-1.533.75A.636.636,0,0,0,.5,5.114V6.166a.636.636,0,0,0,.635.635,1.686,1.686,0,0,1,1.533.75,1.688,1.688,0,0,1-.12,1.7.635.635,0,0,0,.234.863l1.034.592.007,0a.466.466,0,0,0,.241.066.511.511,0,0,0,.435-.249l.064-.11a1.692,1.692,0,0,1,1.418-.953,1.682,1.682,0,0,1,1.414.955Z" transform="translate(1.195 1.53)" fill="#fff"/>
  <path id="Vector-3" data-name="Vector" d="M0,0H14.341V14.341H0Z" fill="none" opacity="0"/>
</svg>
