<svg id="element-equal" xmlns="http://www.w3.org/2000/svg" width="24" height="24" viewBox="0 0 24 24">
  <path id="Vector" d="M6.27,9.25H2.23C.225,9.25-.75,8.275-.75,6.27V2.23C-.75.225.225-.75,2.23-.75H6.27c2.005,0,2.98.975,2.98,2.98V6.27C9.25,8.275,8.275,9.25,6.27,9.25ZM2.23.75C1.054.75.75,1.054.75,2.23V6.27c0,1.176.3,1.48,1.48,1.48H6.27c1.176,0,1.48-.3,1.48-1.48V2.23c0-1.176-.3-1.48-1.48-1.48Z" transform="translate(13.5 2)"/>
  <path id="Vector-2" data-name="Vector" d="M6.311,9.24H2.23C.225,9.24-.75,8.347-.75,6.51V1.98C-.75.143.225-.75,2.23-.75H6.27c2.005,0,2.98.893,2.98,2.73V6.52a2.622,2.622,0,0,1-.757,2.066A3.1,3.1,0,0,1,6.311,9.24ZM2.23.75C.9.75.75,1.144.75,1.98V6.51c0,.855.14,1.23,1.48,1.23H6.311a1.845,1.845,0,0,0,1.177-.268c.065-.058.262-.236.262-.952V1.98C7.75,1.144,7.6.75,6.27.75Z" transform="translate(2 2)"/>
  <path id="Vector-3" data-name="Vector" d="M6.27,9.25H2.23C.225,9.25-.75,8.275-.75,6.27V2.23C-.75.225.225-.75,2.23-.75H6.27c2.005,0,2.98.975,2.98,2.98V6.27C9.25,8.275,8.275,9.25,6.27,9.25ZM2.23.75C1.054.75.75,1.054.75,2.23V6.27c0,1.176.3,1.48,1.48,1.48H6.27c1.176,0,1.48-.3,1.48-1.48V2.23c0-1.176-.3-1.48-1.48-1.48Z" transform="translate(2 13.5)"/>
  <path id="Vector-4" data-name="Vector" d="M6,.75H0A.75.75,0,0,1-.75,0,.75.75,0,0,1,0-.75H6A.75.75,0,0,1,6.75,0,.75.75,0,0,1,6,.75Z" transform="translate(15 15.5)"/>
  <path id="Vector-5" data-name="Vector" d="M6,.75H0A.75.75,0,0,1-.75,0,.75.75,0,0,1,0-.75H6A.75.75,0,0,1,6.75,0,.75.75,0,0,1,6,.75Z" transform="translate(15 19.5)"/>
  <path id="Vector-6" data-name="Vector" d="M0,0H24V24H0Z" fill="none" opacity="0"/>
</svg>
