<svg xmlns="http://www.w3.org/2000/svg" width="47.053" height="45.89" viewBox="0 0 47.053 45.89">
  <g id="factory-svgrepo-com" transform="translate(-37.727 -3.353)">
    <g id="Group_38118" data-name="Group 38118" transform="translate(37.727 3.353)">
      <g id="Group_38117" data-name="Group 38117" transform="translate(0)">
        <path id="Path_27677" data-name="Path 27677" d="M58.646,108.146V92.372L55,95.562V86.249H51.624V98.512l-1.75,1.531V92.372L44.125,97.4V87.036H40.751v13.292h.024l-3.048,2.665v29.145H84.78V108.146ZM46.5,102.994v25.771H41.1V104.525L46.5,99.8Zm8.772,5.152v20.619h-5.4V104.525l5.4-4.721Zm17.153,20.619H68.17V124.51h4.255Zm8.981,0H75.8v-7.629h-11v7.629h-6.15V111.52h22.76v17.245Z" transform="translate(-37.727 -86.249)"/>
      </g>
    </g>
    <g id="Group_38120" data-name="Group 38120" transform="translate(64.895 31.89)">
      <g id="Group_38119" data-name="Group 38119">
        <rect id="Rectangle_17420" data-name="Rectangle 17420" width="10.797" height="3.374"/>
      </g>
    </g>
  </g>
</svg>
