<svg xmlns="http://www.w3.org/2000/svg" width="40.67" height="40.091" viewBox="0 0 40.67 40.091">
  <g id="house-2-svgrepo-com" transform="translate(-0.6 -0.985)">
    <path id="Path_27606" data-name="Path 27606" d="M2,22H39.87" transform="translate(0 17.676)" fill="none" stroke="#000" stroke-linecap="round" stroke-linejoin="round" stroke-miterlimit="10" stroke-width="2.8"/>
    <path id="Path_27607" data-name="Path 27607" d="M2.95,39.676l.094-22.952a3.861,3.861,0,0,1,1.451-3l13.194-10.4a3.754,3.754,0,0,1,4.637,0L35.52,13.71a3.813,3.813,0,0,1,1.451,3.014V39.676" transform="translate(0.925 0)" fill="none" stroke="#000" stroke-linejoin="round" stroke-miterlimit="10" stroke-width="2.8"/>
    <path id="Path_27608" data-name="Path 27608" d="M22.413,11H9.72A2.844,2.844,0,0,0,7,13.96V32.71H25.133V13.96A2.844,2.844,0,0,0,22.413,11Z" transform="translate(4.868 6.966)" fill="none" stroke="#000" stroke-linecap="round" stroke-linejoin="round" stroke-miterlimit="10" stroke-width="2.8"/>
    <path id="Path_27609" data-name="Path 27609" d="M10,16.25v2.96" transform="translate(7.148 12.381)" fill="none" stroke="#000" stroke-linecap="round" stroke-linejoin="round" stroke-miterlimit="10" stroke-width="2.8"/>
    <path id="Path_27610" data-name="Path 27610" d="M10.5,7.5h5.921" transform="translate(7.474 4.512)" fill="none" stroke="#000" stroke-linecap="round" stroke-linejoin="round" stroke-miterlimit="10" stroke-width="2.8"/>
  </g>
</svg>
