<svg xmlns="http://www.w3.org/2000/svg" width="41.253" height="37.428" viewBox="0 0 41.253 37.428">
  <path id="building-03-svgrepo-com" d="M12.52,10.651h5.26M12.52,18.3h5.26m-5.26,7.651h5.26m6.694-15.3h5.26M24.474,18.3h5.26m-5.26,7.651h5.26m6.694,11.476V9.121c0-2.142,0-3.214-.417-4.032a3.825,3.825,0,0,0-1.672-1.672C33.521,3,32.45,3,30.307,3H11.946C9.8,3,8.732,3,7.914,3.417A3.825,3.825,0,0,0,6.242,5.089c-.417.818-.417,1.889-.417,4.032V37.428m34.428,0H2" transform="translate(-0.5 -1.5)" fill="none" stroke="#000" stroke-linecap="round" stroke-linejoin="round" stroke-width="3"/>
</svg>
