<svg xmlns="http://www.w3.org/2000/svg" width="36" height="36" viewBox="1277 159 36 36"><path d="M1295 161.25c8.698 0 15.75 7.052 15.75 15.75s-7.052 15.75-15.75 15.75-15.75-7.052-15.75-15.75 7.052-15.75 15.75-15.75Zm0 33.75c9.941 0 18-8.059 18-18s-8.059-18-18-18-18 8.059-18 18 8.059 18 18 18Zm-1.125-11.25c0 .619.506 1.125 1.125 1.125s1.125-.506 1.125-1.125v-5.625h5.625c.619 0 1.125-.506 1.125-1.125s-.506-1.125-1.125-1.125h-5.625v-5.625c0-.619-.506-1.125-1.125-1.125s-1.125.506-1.125 1.125v5.625h-5.625c-.619 0-1.125.506-1.125 1.125s.506 1.125 1.125 1.125h5.625v5.625Z" fill-rule="evenodd" data-name="circle-plus"/></svg>