<svg xmlns="http://www.w3.org/2000/svg" width="16.125" height="16.125" viewBox="1752.938 1019.938 16.125 16.125"><g data-name="vuesax/outline/close-circle"><g data-name="close-circle"><path d="M1761 1036.062c-4.448 0-8.063-3.615-8.063-8.062 0-4.448 3.615-8.063 8.063-8.063 4.447 0 8.062 3.615 8.062 8.063 0 4.447-3.615 8.062-8.062 8.062Zm0-15a6.946 6.946 0 0 0-6.938 6.938 6.946 6.946 0 0 0 6.938 6.937 6.946 6.946 0 0 0 6.937-6.937 6.946 6.946 0 0 0-6.937-6.938Z" fill="#292d32" fill-rule="evenodd" data-name="Vector"/><path d="M1758.878 1030.685a.556.556 0 0 1-.398-.165.566.566 0 0 1 0-.795l4.245-4.245a.566.566 0 0 1 .795 0 .566.566 0 0 1 0 .795l-4.245 4.245a.544.544 0 0 1-.397.165Z" fill="#292d32" fill-rule="evenodd" data-name="Vector"/><path d="M1763.122 1030.685a.556.556 0 0 1-.397-.165l-4.245-4.245a.566.566 0 0 1 0-.795.566.566 0 0 1 .795 0l4.245 4.245a.566.566 0 0 1 0 .795.556.556 0 0 1-.398.165Z" fill="#292d32" fill-rule="evenodd" data-name="Vector"/></g></g></svg>