<svg xmlns="http://www.w3.org/2000/svg" width="34" height="34" viewBox="25.5 -0.05 34 34"><g data-name="Group 38017"><path d="M25.5 16.9a17 17 0 1 1 0 .1z" fill="#017efb" fill-rule="evenodd" data-name="Ellipse 128"/><g data-name="vuesax/outline/messages"><g data-name="messages"><path d="M39.445 22.168c-.06 0-.12-.008-.18-.016a1.314 1.314 0 0 1-1.02-.75l-.945-2.077c-1.5-1.11-2.362-2.767-2.362-4.567 0-3.203 2.774-5.813 6.187-5.813 2.408 0 4.605 1.32 5.603 3.367.382.758.584 1.583.584 2.446 0 3.12-2.632 5.677-5.917 5.805l-.945 1.14a1.341 1.341 0 0 1-1.005.465Zm1.68-12.105c-2.79 0-5.063 2.1-5.063 4.687 0 1.477.735 2.842 2.01 3.742.083.06.15.135.188.225l1.005 2.213a.173.173 0 0 0 .15.105c.038.008.113 0 .165-.06l1.11-1.335a.56.56 0 0 1 .435-.203c2.79 0 5.063-2.1 5.063-4.687 0-.682-.158-1.335-.465-1.943-.81-1.672-2.618-2.745-4.598-2.745Z" fill="#fff" fill-rule="evenodd" data-name="Vector"/><path d="M46.555 25.062c-.39 0-.75-.172-1.005-.472l-.945-1.133c-1.815-.075-3.525-.907-4.62-2.257a.555.555 0 0 1 .008-.712l.697-.84a.56.56 0 0 1 .435-.203c2.79 0 5.063-2.1 5.063-4.688 0-.682-.158-1.335-.465-1.942a.563.563 0 0 1 .63-.803c2.775.638 4.71 2.955 4.71 5.64 0 1.8-.863 3.458-2.363 4.568l-.945 2.077a1.299 1.299 0 0 1-1.2.765Zm-5.385-4.237c.938.952 2.288 1.507 3.705 1.507.165 0 .323.075.435.203l1.11 1.335c.053.067.12.075.165.067.03 0 .113-.022.158-.112l1.005-2.212a.551.551 0 0 1 .187-.226c1.275-.9 2.01-2.265 2.01-3.742 0-1.8-1.102-3.397-2.782-4.185.105.42.157.847.157 1.29 0 3.12-2.632 5.677-5.917 5.805l-.233.27ZM43 15.313h-3.75a.567.567 0 0 1-.563-.563c0-.308.255-.563.563-.563H43c.307 0 .563.255.563.563a.567.567 0 0 1-.563.563Z" fill="#fff" fill-rule="evenodd" data-name="Vector"/></g></g></g></svg>