<svg xmlns="http://www.w3.org/2000/svg" width="50" height="48.913" viewBox="397 110 50 48.913"><g data-name="message_ic"><path d="M397 110h50v48.913h-50V110z" fill="#fff" fill-rule="evenodd" data-name="Rectangle 17446"/><g data-name="Group 38404"><g data-name="Group 38403" transform="translate(402 114)" clip-path="url(&quot;#a&quot;)"><path d="M27.857 7.486c.589 0 1.165-.174 1.656-.5l5.75-3.835a.995.995 0 0 1 1.547.827v18.43a2.985 2.985 0 0 1-2.984 2.985h-1.99v2.985h1.99a5.97 5.97 0 0 0 5.968-5.969V3.979A3.98 3.98 0 0 0 33.608.667L27.858 4.5h-13.93a5.969 5.969 0 0 0-5.968 5.97v1.99h2.985v-1.99a2.985 2.985 0 0 1 2.985-2.985h13.927Z" fill-rule="evenodd" data-name="Path 27685"/><path d="M25.87 12.457H5.97A5.97 5.97 0 0 0 0 18.427v17.588C0 38.383 1.944 40 4.001 40c.84 0 1.704-.272 2.465-.88l3.48-2.785H25.87a5.97 5.97 0 0 0 5.97-5.97V18.426a5.97 5.97 0 0 0-5.97-5.969m0 20.893H9.946c-.672 0-1.328.232-1.864.656l-3.48 2.785c-.65.52-1.617.056-1.617-.776V18.426a2.985 2.985 0 0 1 2.984-2.984H25.87a2.985 2.985 0 0 1 2.985 2.984v11.94a2.985 2.985 0 0 1-2.985 2.984" fill-rule="evenodd" data-name="Path 27686"/></g></g></g><defs><clipPath id="a"><path d="M0 0h39.794v40H0V0z" data-name="Rectangle 17445"/></clipPath></defs></svg>