<svg xmlns="http://www.w3.org/2000/svg" width="45.19" height="45.19" viewBox="383 210.95 45.19 45.19"><g data-name="Group 2"><path d="M383 233.495a22.595 22.595 0 1 1 0 .1z" fill="#ff8700" fill-rule="evenodd" data-name="background"/><g data-name="vuesax/bold/message-notif"><g data-name="message-notif"><path d="M416.75 226a2.75 2.75 0 1 1-5.5 0 2.75 2.75 0 0 1 5.5 0Z" fill="#fff" fill-rule="evenodd" data-name="Vector"/><path d="M413.04 230.15a4.226 4.226 0 0 1-3.19-3.19c-.13-.61-.14-1.2-.03-1.76a.988.988 0 0 0-.97-1.2H401c-2.76 0-5 2.24-5 5v6.95c0 2.76 2.24 5 5 5h1.5c.28 0 .64.18.8.4l1.5 1.99c.66.88 1.74.88 2.4 0l1.5-1.99a1 1 0 0 1 .8-.4h1.51c2.76 0 4.99-2.23 4.99-4.99v-4.81c0-.63-.58-1.09-1.2-.97-.56.1-1.15.1-1.76-.03ZM402 234c-.56 0-1-.45-1-1s.44-1 1-1c.55 0 1 .45 1 1s-.44 1-1 1Zm4 0c-.56 0-1-.45-1-1s.44-1 1-1c.55 0 1 .45 1 1s-.44 1-1 1Zm4 0c-.56 0-1-.45-1-1s.44-1 1-1c.55 0 1 .45 1 1s-.44 1-1 1Z" fill="#fff" fill-rule="evenodd" data-name="Vector"/></g></g></g></svg>